<svg xmlns="http://www.w3.org/2000/svg" viewBox="0 0 500 500"><g id="freepik--background-simple--inject-288"><path d="M334.58,119.45s-52.13-29.16-111.94-7-97.93,79.8-130,125.71-27.19,99,10.43,129.24,71.72.9,130.33,9.16,72.88,19.26,126.89-5.45,76-101,47.66-165S334.58,119.45,334.58,119.45Z" style="fill:#025566"></path><path d="M334.58,119.45s-52.13-29.16-111.94-7-97.93,79.8-130,125.71-27.19,99,10.43,129.24,71.72.9,130.33,9.16,72.88,19.26,126.89-5.45,76-101,47.66-165S334.58,119.45,334.58,119.45Z" style="fill:#fff;opacity:0.8"></path></g><g id="freepik--Floor--inject-288"><path d="M423.67,428.55c0,3.92-77.91,7.1-174,7.1s-174-3.18-174-7.1,77.9-7.11,174-7.11S423.67,424.62,423.67,428.55Z" style="fill:#025566"></path><path d="M423.67,428.55c0,3.92-77.91,7.1-174,7.1s-174-3.18-174-7.1,77.9-7.11,174-7.11S423.67,424.62,423.67,428.55Z" style="fill:#fff;opacity:0.5"></path></g><g id="freepik--Calendar--inject-288"><rect x="117.99" y="116.01" width="252.15" height="167.53" rx="11.66" style="fill:#025566;stroke:#263238;stroke-linecap:round;stroke-miterlimit:10"></rect><rect x="117.99" y="116.01" width="252.15" height="167.53" rx="11.66" style="fill:#025566;stroke:#263238;stroke-linecap:round;stroke-miterlimit:10;opacity:0.7000000000000001"></rect><rect x="194.84" y="209.67" width="29.5" height="16.55" style="fill:#fff"></rect><rect x="194.84" y="229.21" width="29.5" height="16.55" style="fill:#fff"></rect><rect x="227.34" y="209.67" width="29.5" height="16.55" style="fill:#fff"></rect><rect x="259.85" y="190.12" width="29.5" height="16.55" style="fill:#fff"></rect><rect x="259.85" y="170.57" width="29.5" height="16.55" style="fill:#fff"></rect><rect x="259.85" y="134.44" width="29.5" height="13.58" style="fill:#263238"></rect><rect x="227.34" y="134.44" width="29.5" height="13.58" style="fill:#263238"></rect><rect x="227.34" y="229.21" width="29.5" height="16.55" style="fill:#fff"></rect><rect x="227.34" y="151.02" width="29.5" height="16.55" style="fill:#fff"></rect><rect x="227.34" y="170.57" width="29.5" height="16.55" style="fill:#fff"></rect><rect x="227.34" y="190.12" width="29.5" height="16.55" style="fill:#fff"></rect><rect x="259.85" y="229.21" width="29.5" height="16.55" style="fill:#fff"></rect><rect x="127.88" y="151.02" width="31.45" height="16.55" style="fill:#fff"></rect><rect x="127.88" y="190.12" width="31.45" height="16.55" style="fill:#fff"></rect><rect x="127.88" y="209.67" width="31.45" height="16.55" style="fill:#fff"></rect><rect x="127.88" y="170.57" width="31.45" height="16.55" style="fill:#fff"></rect><rect x="324.86" y="134.44" width="31.45" height="13.58" style="fill:#263238"></rect><rect x="127.88" y="229.21" width="31.45" height="16.55" style="fill:#fff"></rect><rect x="292.35" y="151.02" width="29.5" height="16.55" style="fill:#fff"></rect><rect x="259.85" y="209.67" width="29.5" height="16.55" style="fill:#fff"></rect><rect x="292.35" y="209.67" width="29.5" height="16.55" style="fill:#fff"></rect><rect x="292.35" y="170.57" width="29.5" height="16.55" style="fill:#fff"></rect><rect x="292.35" y="190.12" width="29.5" height="16.55" style="fill:#fff"></rect><rect x="292.35" y="229.21" width="29.5" height="16.55" style="fill:#fff"></rect><rect x="259.85" y="151.02" width="29.5" height="16.55" style="fill:#fff"></rect><rect x="324.86" y="229.21" width="31.45" height="16.55" style="fill:#fff"></rect><rect x="292.35" y="134.44" width="29.5" height="13.58" style="fill:#263238"></rect><rect x="324.86" y="209.67" width="31.45" height="16.55" style="fill:#fff"></rect><rect x="292.35" y="248.76" width="29.5" height="17.49" style="fill:#fff"></rect><rect x="324.86" y="190.12" width="31.45" height="16.55" style="fill:#fff"></rect><rect x="227.34" y="248.76" width="29.5" height="17.49" style="fill:#fff"></rect><rect x="259.85" y="248.76" width="29.5" height="17.49" style="fill:#fff"></rect><rect x="324.86" y="170.57" width="31.45" height="16.55" style="fill:#fff"></rect><rect x="324.86" y="248.76" width="31.45" height="17.49" style="fill:#fff"></rect><rect x="127.88" y="248.76" width="31.45" height="17.49" style="fill:#fff"></rect><rect x="324.86" y="151.02" width="31.45" height="16.55" style="fill:#fff"></rect><rect x="127.88" y="134.44" width="31.45" height="13.58" style="fill:#263238"></rect><rect x="162.33" y="134.44" width="29.5" height="13.58" style="fill:#263238"></rect><rect x="162.33" y="209.67" width="29.5" height="16.55" style="fill:#fff"></rect><rect x="194.84" y="134.44" width="29.5" height="13.58" style="fill:#263238"></rect><rect x="194.84" y="170.57" width="29.5" height="16.55" style="fill:#fff"></rect><rect x="162.33" y="229.21" width="29.5" height="16.55" style="fill:#fff"></rect><rect x="194.84" y="151.02" width="29.5" height="16.55" style="fill:#fff"></rect><rect x="162.33" y="151.02" width="29.5" height="16.55" style="fill:#fff"></rect><rect x="194.84" y="190.12" width="29.5" height="16.55" style="fill:#fff"></rect><rect x="162.33" y="190.12" width="29.5" height="16.55" style="fill:#fff"></rect><rect x="162.33" y="248.76" width="29.5" height="17.49" style="fill:#fff"></rect><rect x="162.33" y="170.57" width="29.5" height="16.55" style="fill:#fff"></rect><rect x="194.84" y="248.76" width="29.5" height="17.49" style="fill:#fff"></rect><circle cx="141.76" cy="121.06" r="4.25" style="fill:#fff;stroke:#263238;stroke-linecap:round;stroke-miterlimit:10"></circle><path d="M160.4,121.06a4.26,4.26,0,1,0-4.25,4.25A4.25,4.25,0,0,0,160.4,121.06Z" style="fill:#fff;stroke:#263238;stroke-linecap:round;stroke-miterlimit:10"></path><path d="M141.84,123.83h0a2.23,2.23,0,0,1-2.23-2.23V106.52a2.23,2.23,0,0,1,2.23-2.24h0a2.24,2.24,0,0,1,2.24,2.24V121.6A2.23,2.23,0,0,1,141.84,123.83Z" style="fill:#fff;stroke:#263238;stroke-linecap:round;stroke-miterlimit:10"></path><path d="M156.36,123.83h0a2.23,2.23,0,0,1-2.23-2.23V106.52a2.23,2.23,0,0,1,2.23-2.24h0a2.24,2.24,0,0,1,2.24,2.24V121.6A2.23,2.23,0,0,1,156.36,123.83Z" style="fill:#fff;stroke:#263238;stroke-linecap:round;stroke-miterlimit:10"></path><path d="M337.92,121.06a4.26,4.26,0,1,0-4.25,4.25A4.25,4.25,0,0,0,337.92,121.06Z" style="fill:#fff;stroke:#263238;stroke-linecap:round;stroke-miterlimit:10"></path><circle cx="348.05" cy="121.06" r="4.25" style="fill:#fff;stroke:#263238;stroke-linecap:round;stroke-miterlimit:10"></circle><path d="M333.74,123.83h0a2.23,2.23,0,0,1-2.23-2.23V106.52a2.23,2.23,0,0,1,2.23-2.24h0a2.24,2.24,0,0,1,2.24,2.24V121.6A2.23,2.23,0,0,1,333.74,123.83Z" style="fill:#fff;stroke:#263238;stroke-linecap:round;stroke-miterlimit:10"></path><path d="M348.27,123.83h0A2.23,2.23,0,0,1,346,121.6V106.52a2.24,2.24,0,0,1,2.24-2.24h0a2.23,2.23,0,0,1,2.23,2.24V121.6A2.23,2.23,0,0,1,348.27,123.83Z" style="fill:#fff;stroke:#263238;stroke-linecap:round;stroke-miterlimit:10"></path><circle cx="237.72" cy="121.06" r="4.25" style="fill:#fff;stroke:#263238;stroke-linecap:round;stroke-miterlimit:10"></circle><circle cx="252.1" cy="121.06" r="4.25" style="fill:#fff;stroke:#263238;stroke-linecap:round;stroke-miterlimit:10"></circle><path d="M237.79,123.83h0a2.23,2.23,0,0,1-2.23-2.23V106.52a2.23,2.23,0,0,1,2.23-2.24h0a2.24,2.24,0,0,1,2.24,2.24V121.6A2.23,2.23,0,0,1,237.79,123.83Z" style="fill:#fff;stroke:#263238;stroke-linecap:round;stroke-miterlimit:10"></path><path d="M252.31,123.83h0a2.23,2.23,0,0,1-2.23-2.23V106.52a2.23,2.23,0,0,1,2.23-2.24h0a2.24,2.24,0,0,1,2.24,2.24V121.6A2.23,2.23,0,0,1,252.31,123.83Z" style="fill:#fff;stroke:#263238;stroke-linecap:round;stroke-miterlimit:10"></path><line x1="148.3" y1="172.01" x2="133.42" y2="185.13" style="fill:none;stroke:#263238;stroke-linecap:round;stroke-linejoin:round;stroke-width:2px"></line><line x1="138" y1="172.01" x2="148.3" y2="184.25" style="fill:none;stroke:#263238;stroke-linecap:round;stroke-linejoin:round;stroke-width:2px"></line><line x1="312.99" y1="153.35" x2="298.11" y2="166.46" style="fill:none;stroke:#263238;stroke-linecap:round;stroke-linejoin:round;stroke-width:2px"></line><line x1="302.69" y1="153.35" x2="312.99" y2="165.59" style="fill:none;stroke:#263238;stroke-linecap:round;stroke-linejoin:round;stroke-width:2px"></line><line x1="215.48" y1="153.35" x2="200.59" y2="166.46" style="fill:none;stroke:#263238;stroke-linecap:round;stroke-linejoin:round;stroke-width:2px"></line><line x1="205.17" y1="153.35" x2="215.48" y2="165.59" style="fill:none;stroke:#263238;stroke-linecap:round;stroke-linejoin:round;stroke-width:2px"></line><line x1="347.03" y1="152.98" x2="332.14" y2="166.1" style="fill:none;stroke:#263238;stroke-linecap:round;stroke-linejoin:round;stroke-width:2px"></line><line x1="336.72" y1="152.98" x2="347.03" y2="165.22" style="fill:none;stroke:#263238;stroke-linecap:round;stroke-linejoin:round;stroke-width:2px"></line></g><g id="freepik--character-1--inject-288"><path d="M191.4,195.53s4.59,5.82,5.06,7.1a24.09,24.09,0,0,1,.82,2.85l3,2.22a.85.85,0,0,1,.16,1.23l-2.27,2.79s2.11,7,2,8-7.44,3.49-7.44,3.49l-.68,5.36-13.9-.18-.05-9.93-5.55-13S177.52,196.08,191.4,195.53Z" style="fill:#fff;stroke:#263238;stroke-linecap:round;stroke-linejoin:round"></path><path d="M189,215.12l1.87-.2a6.25,6.25,0,0,0,2.94,4" style="fill:#fff;stroke:#263238;stroke-linecap:round;stroke-linejoin:round"></path><path d="M175.5,195.86s-5.25.25-5.22,7.52,7.39,14,7.79,15.07,4.34.57,7.11-.46a7.27,7.27,0,0,0,3.79-2.87s-2.65-3.86-2.11-5,3.38-.05,3.38-.05a6.74,6.74,0,0,0,1.68-1.35c.48-.67,3.05-3.56,1.27-5.08s-4.55-2.44-3.32-4.36,5.63-3.79,4.34-7.92-4.17-4-6.57-2.65-3.06-3-7.73-.53S173.93,194.26,175.5,195.86Z" style="fill:#263238;stroke:#263238;stroke-linecap:round;stroke-linejoin:round"></path><path d="M181.64,210.1a9.06,9.06,0,0,0,0,2.32" style="fill:none;stroke:#fff;stroke-linecap:round;stroke-linejoin:round;stroke-width:0.5px"></path><path d="M189.74,198.42s-1,1.85-5,5.44a9.48,9.48,0,0,0-2.86,4.73" style="fill:none;stroke:#fff;stroke-linecap:round;stroke-linejoin:round;stroke-width:0.5px"></path><path d="M190.68,202.09s-4.07,5.52-6.21,7.16" style="fill:none;stroke:#fff;stroke-linecap:round;stroke-linejoin:round;stroke-width:0.5px"></path><path d="M231.69,196.14a55.16,55.16,0,0,0,13,4.36s-6.41-4.34-12.61-5.42C231.51,195,231.2,195.89,231.69,196.14Z" style="fill:#263238;stroke:#263238;stroke-linecap:round;stroke-linejoin:round"></path><path d="M230.5,229l7.64-19.56s-3-4.93-3-6.42,4.78-6.85,4.78-6.85.39-2.91,2.47-1.52a4.22,4.22,0,0,1,1.82,3.74,38.62,38.62,0,0,1,2.61,4.23c.48,1.16-4.06,7.61-4.06,7.61S242,228,240,234.11s-2.5,7.38-3.83,9.17-7.65-1.36-7.65-1.36Z" style="fill:#fff;stroke:#263238;stroke-linecap:round;stroke-linejoin:round"></path><path d="M195.57,417.72,208,422.24a2.21,2.21,0,0,1,1.3,3,1.47,1.47,0,0,1-.83.73c-1.58.57-18,6.2-22.79,4.17a3,3,0,0,1-1.65-2.63,83.13,83.13,0,0,1,1.21-11S191.34,419.4,195.57,417.72Z" style="fill:#263238;stroke:#263238;stroke-linecap:round;stroke-linejoin:round"></path><path d="M209.32,425.25a2,2,0,0,0,.05-1.69c-3.44,1.67-10.75,4.8-17.41,4.92a27.12,27.12,0,0,1-7.88-.67,3.1,3.1,0,0,0,1.62,2.34c4.82,2,21.21-3.6,22.79-4.17A1.47,1.47,0,0,0,209.32,425.25Z" style="fill:#fff;stroke:#263238;stroke-linecap:round;stroke-linejoin:round"></path><path d="M161.11,413.94s-1.12,10.31-.52,11.33,2.39,1.71,5.47,1.51a4.5,4.5,0,0,0,4.2-3.17c.28-.74-.44-7.48-.46-8.66S161.11,413.94,161.11,413.94Z" style="fill:#263238;stroke:#263238;stroke-linecap:round;stroke-linejoin:round"></path><path d="M170.29,421.68c-.95,1.83-2.16,3-5.3,3.06a8,8,0,0,1-4.58-1.22,4.89,4.89,0,0,0,.18,1.75c.61,1,2.39,1.71,5.47,1.51a4.5,4.5,0,0,0,4.2-3.17A8.06,8.06,0,0,0,170.29,421.68Z" style="fill:#fff;stroke:#263238;stroke-linecap:round;stroke-linejoin:round"></path><path d="M202.22,295.31a41.76,41.76,0,0,1-9.17,3.27l-27.57-6.37s-1.83,15.46-1.78,18.12,1,50.53,1,50.53l-3.76,53.8a4.59,4.59,0,0,0,4.31,2.58,12.87,12.87,0,0,0,5.3-1.17l11.82-56L185,419.52s1.63,1.57,5.35,1.49a6.18,6.18,0,0,0,5.26-3.29s1.83-23,4.56-39.46,3.06-61.77,3.06-61.77Z" style="fill:#fff;stroke:#263238;stroke-linecap:round;stroke-linejoin:round"></path><path d="M176,303.42a56.27,56.27,0,0,0,11,1.27" style="fill:none;stroke:#263238;stroke-linecap:round;stroke-linejoin:round"></path><path d="M165.78,300.45s1.28,1.7,4.67,1.7" style="fill:none;stroke:#263238;stroke-linecap:round;stroke-linejoin:round"></path><path d="M193.75,403.42s2.54-30.51,4.24-52.54a286.5,286.5,0,0,0,.42-39s4.24-4.66,1.27-12.71" style="fill:none;stroke:#263238;stroke-linecap:round;stroke-linejoin:round"></path><line x1="193.75" y1="406.81" x2="192.48" y2="416.56" style="fill:none;stroke:#263238;stroke-linecap:round;stroke-linejoin:round"></line><polyline points="182.34 360.08 179.32 320.14 172.27 313.36" style="fill:none;stroke:#263238;stroke-linecap:round;stroke-linejoin:round"></polyline><path d="M167.57,273.39a2.2,2.2,0,0,0-.87-2.5c-3.06-2.07-10.48-6.33-12.85-.72a36.09,36.09,0,0,0-1.44,6.72c-.66,4.49-.42,34.89-.39,38a2.07,2.07,0,0,1-.06.5c-.26,1.19-1.35,6.39-.59,9.49.85,3.53,2.48,6.25,5.25,7s4.28-2.45,3.85-4.41.6-3.48.17-5.44c-.35-1.58-1.85-5.71-2.42-7.24a2.26,2.26,0,0,1-.1-1.18c.78-4,5.15-26.43,5.48-27.51S166.49,276.88,167.57,273.39Z" style="fill:#fff;stroke:#263238;stroke-linecap:round;stroke-linejoin:round"></path><path d="M155.79,325.55s3.53,2.47,3.94,4.75" style="fill:none;stroke:#263238;stroke-linecap:round;stroke-linejoin:round"></path><path d="M156.91,323.5s2.8,1.83,3.55,3.27" style="fill:none;stroke:#263238;stroke-linecap:round;stroke-linejoin:round"></path><path d="M157.42,321.43l1,1.38s.5,5.5,2.06,4.68.64-7.49.64-7.49-.79-1.63-3.23-5.52" style="fill:#fff;stroke:#263238;stroke-linecap:round;stroke-linejoin:round"></path><path d="M157.24,315.68a10.48,10.48,0,0,1-.14,6,47.61,47.61,0,0,1-3,4.9,46.53,46.53,0,0,1,4.11,4.48" style="fill:none;stroke:#263238;stroke-linecap:round;stroke-linejoin:round"></path><path d="M159,237.31l-9.07,33.33s7.59,6.15,17,6L173,245S166.22,229.77,159,237.31Z" style="fill:#263238;stroke:#263238;stroke-linecap:round;stroke-linejoin:round"></path><path d="M174,226.38S160.68,233,159.43,236c-1,2.5,2.06,20.2,2.12,23.31s2.72,29.83,3.44,35,18,7.37,24.58,5.38,12.69-2.75,12.65-4.41-.92-15.72-.56-18.41S204.81,254,204.81,254l25.11-5.2s1.16-.7,1.19-5.24a122.85,122.85,0,0,0-.66-12.83,28.9,28.9,0,0,1-9.94.62c-6.06-.54-13.24-2.17-14.52-1.81s-10-1.46-12.87-1.82C189.13,227.18,179,223.8,174,226.38Z" style="fill:#263238;stroke:#263238;stroke-linecap:round;stroke-linejoin:round"></path><line x1="162.82" y1="275.03" x2="159.33" y2="245.76" style="fill:none;stroke:#fff;stroke-linecap:round;stroke-linejoin:round;stroke-width:0.5px"></line><line x1="160.28" y1="258.5" x2="158.58" y2="254.69" style="fill:none;stroke:#fff;stroke-linecap:round;stroke-linejoin:round;stroke-width:0.5px"></line><line x1="204.81" y1="253.95" x2="195.02" y2="255.53" style="fill:none;stroke:#fff;stroke-linecap:round;stroke-linejoin:round;stroke-width:0.5px"></line><line x1="202.65" y1="254.69" x2="195.45" y2="261.47" style="fill:none;stroke:#fff;stroke-linecap:round;stroke-linejoin:round;stroke-width:0.5px"></line><path d="M224.68,232.23s-6.78,10.17-23.3,14" style="fill:none;stroke:#fff;stroke-linecap:round;stroke-linejoin:round;stroke-width:0.5px"></path></g></svg>
