<svg xmlns="http://www.w3.org/2000/svg" xmlns:xlink="http://www.w3.org/1999/xlink" viewBox="0 0 500 500"><defs><clipPath id="freepik--clip-path--inject-165"><path d="M121.05,229.84c-.21.61-5,11.06-5.23,11.68-2.66,8.56-2.43,13.71-1,22.59l.19,1.23c.64,16.62-3.9,25.07-12.46,39.33l-1.73,2.89-1.13,1.68h0l-2.53,3.35s.58,3.22-.88,4.52c-5.39,4.75-8.06,5.62-8.86,13.95l-.49,28.27-1.37-.14c-2.88-.3-5.72-.67-8.49-1.13l-2.37-.41a95.63,95.63,0,0,1-10.52-2.57c-.39-.12-.78-.24-1.16-.38-1.16-.38-2.31-.78-3.42-1.21-.38-.14-.76-.29-1.13-.45-1-.39-1.9-.8-2.82-1.22L55,351.5c-1.35-.65-2.68-1.34-4-2.09-.54-.31-1.06-.62-1.59-1,.36-2,.72-3.91,1.07-5.8a393.78,393.78,0,0,0,6.38-60.11L58,243.44a40.84,40.84,0,0,1,11-25.12l24.74-25.73c.64-.67,2.88-1,3.74-1l0,47.54s6.72-22.53,9-28c5.58-13.6,15.23-10.75,17.43-5.8C125.35,208.54,121.2,229.41,121.05,229.84Z" style="fill:#fff"></path></clipPath><clipPath id="freepik--clip-path-2--inject-165"><path d="M392.53,432.06v-46.9l-.7-10.44s-6.31-9.1-5.91-19.15c.33-8.47,10.09-35.16,10.78-37.95.26-1,2.44-18.45,2.44-19.48s1-15.32,4.52-18.45,9.4-4.53,11.14,0,3.48,18.79,2.45,24-3.14,11.49-3.84,16a35.66,35.66,0,0,0,.36,10.09h15.66l2.77-8.7.71-17.41s-8.92-4.56-10.55-9v-4.21c.07-1.45.06-2.94,0-4.28v-4.61c3.1,1.5,23.59,11.51,25.51,14.07,2.09,2.79,3.48,13.93,3.48,13.93l2.76-6.91,0-.06s-8.71-14.26-9.4-16.69c0,0-7-1.74-10.09-5.58s-5.22-7.65-2.09-11.13,20.19,6.26,20.19,6.26l11.41,14.75,5.29,6.83s9.75,9.87,10.14,12.47c.45,2.94-3.88,15.72-3.88,15.72l-14.26,28.55c-.83,1.5-7.7,8.67-14.68,15.77-7.67,7.82-15.47,15.56-15.47,15.56l1.18,10.55a105.34,105.34,0,0,1-15.35,17.7c-1.85,1.69-3.75,3.34-5.72,5a178,178,0,0,1-18.88,13.66" style="fill:#fff"></path></clipPath></defs><g id="freepik--background-simple--inject-165"><path d="M464.16,290.26c-1.68,28.89-7.53,56.32-17.39,79.34a145.62,145.62,0,0,1-14.29,26.11,105.34,105.34,0,0,1-15.35,17.7c-1.85,1.69-3.75,3.34-5.72,5a178,178,0,0,1-18.88,13.66q-5.92,3.74-12.44,7.21c-1,.51-1.91,1-2.87,1.49l-.23.12c-.93.47-1.85.92-2.79,1.36s-1.69.79-2.53,1.16l-1,.46c-.7.31-1.39.61-2.09.89l-.27.12c-.94.4-1.9.78-2.85,1.13,0,0,0,0,0,0-.88.34-1.76.66-2.64,1l-.69.24c-.75.27-1.51.53-2.27.78l-.25.08c-.82.28-1.66.54-2.48.79s-1.52.44-2.27.65-1.23.34-1.85.51c-1.5.39-3,.76-4.48,1.09l-1.75.37-1.62.33c-.93.18-1.84.34-2.75.48-.72.13-1.43.23-2.14.33s-1.5.21-2.25.3l-2.22.26-2.23.21-2.21.16-2.22.12c-.65,0-1.3,0-1.95.06l-.66,0c-.61,0-1.2,0-1.8,0-1.46,0-2.92,0-4.38-.07l-1.55-.06-1-.05-1.52-.1c-1.09-.08-2.17-.17-3.25-.28s-2.35-.24-3.52-.4l-1.61-.22-1-.15-1.64-.26c-2.2-.37-4.37-.8-6.53-1.28l-1.92-.45c-.67-.15-1.31-.32-2-.49l-.13,0c-1.4-.36-2.78-.74-4.16-1.15-1.15-.34-2.29-.69-3.42-1.06-.79-.26-1.56-.51-2.33-.78-.61-.21-1.23-.42-1.83-.65q-6.41-2.29-12.57-5.21c-.6-.27-1.2-.56-1.79-.85l-.39-.2c-.58-.28-1.15-.55-1.72-.84h0c-1.29-.64-2.57-1.32-3.85-2l-.89-.49c-.55-.29-1.09-.6-1.64-.9q-4-2.26-7.91-4.73-1-.61-2-1.26c-.78-.5-1.56-1-2.32-1.53s-1.54-1-2.3-1.57-1.28-.89-1.92-1.34c-2.82-2-5.6-4.1-8.31-6.25-.58-.45-1.14-.91-1.71-1.37l-1.7-1.39c-.57-.46-1.13-.92-1.68-1.4s-1.11-.94-1.66-1.41-1.09-.93-1.62-1.4l-1.76-1.56c-.84-.75-1.67-1.52-2.51-2.28-1.27-1.17-2.52-2.37-3.77-3.56-.52-.5-1-1-1.56-1.52l-1.55-1.53c-1.31-1.31-2.61-2.65-3.89-4l-.09-.1c-1.89-2-3.73-4-5.53-6-.07-.09-.15-.16-.21-.24-1.15-1.29-2.29-2.59-3.39-3.89l-1.91-2.25a54.32,54.32,0,0,0-7.09-7.06c-.31-.27-.64-.53-1-.79l-1-.77c-.59-.45-1.19-.88-1.79-1.29-.31-.21-.6-.42-.91-.62l-1-.66-1-.63-.65-.38c-.28-.18-.58-.35-.86-.51l-1.08-.6-1.62-.85c-.34-.17-.69-.33-1-.51-1.47-.71-3-1.37-4.53-2l-1-.38a105.88,105.88,0,0,0-25.54-5.79c-.42-.06-.85-.1-1.29-.14-2.57-.28-5.19-.51-7.82-.69-1.2-.09-2.39-.17-3.6-.23l-1.7-.09-2.66-.12c-1.33-.06-2.67-.11-4-.15l-1.35,0-.31,0c-.79,0-1.57-.05-2.37-.06l-4-.1-3.37-.08-4.18-.08h-.31l-3.87-.1-2.78-.08-2.65-.07h-.2l-2.67-.09c-4.77-.2-9.49-.48-14.09-.91l-.54-.05-1.37-.14c-2.88-.3-5.72-.67-8.49-1.13l-2.37-.41a95.63,95.63,0,0,1-10.52-2.57c-.39-.12-.78-.24-1.16-.38-1.16-.38-2.31-.78-3.42-1.21-.38-.14-.76-.29-1.13-.45-1-.39-1.9-.8-2.82-1.22L55,351.5c-1.35-.65-2.68-1.34-4-2.09-.54-.31-1.06-.62-1.59-1l-.28-.18-.93-.61c-.61-.41-1.22-.83-1.81-1.27l-.55-.42-.72-.53-.93-.75c-.42-.34-.82-.7-1.23-1.05s-1-.93-1.55-1.42-1.12-1.09-1.67-1.67l-.81-.87-.78-.89c-.3-.34-.59-.68-.87-1s-.44-.55-.67-.84-.49-.63-.74-1c-.49-.65-1-1.32-1.43-2l-.16-.24c-.34-.52-.69-1.06-1-1.6l-.08-.13-.42-.7c-.12-.19-.23-.38-.34-.59s-.4-.7-.59-1.05-.38-.71-.57-1.08-.32-.61-.46-.92-.43-.87-.64-1.32c-.52-1.11-1-2.22-1.49-3.35,0,0,0,0,0,0a.54.54,0,0,0-.05-.11c-.34-.82-.68-1.63-1-2.45a2.18,2.18,0,0,1-.09-.23c-.33-.83-.65-1.66-.95-2.51s-.65-1.77-.95-2.67-.6-1.79-.88-2.69c-.56-1.8-1.08-3.61-1.54-5.43q-.28-1.11-.54-2.22c-.11-.39-.19-.8-.28-1.22-.15-.62-.28-1.25-.4-1.89a1.36,1.36,0,0,1-.06-.29c-.18-.88-.35-1.77-.5-2.66s-.32-1.85-.46-2.79-.27-1.87-.39-2.81-.22-1.87-.31-2.81c-.08-.73-.15-1.48-.2-2.22,0-.33,0-.67-.08-1-.05-.72-.1-1.44-.13-2.17a3.25,3.25,0,0,1,0-.55c0-.48-.06-1-.06-1.46q-.06-1-.06-2c0-.77,0-1.57,0-2.36s0-1.33,0-2c0-.26,0-.52,0-.79,0-.66,0-1.31.07-2,0-.33,0-.69,0-1,0-.61.06-1.23.11-1.83l.06-.95c0-.71.1-1.41.17-2.11,0-.27,0-.54.08-.81.08-.87.17-1.72.27-2.58a.34.34,0,0,1,0-.13c.11-1,.23-1.94.37-2.92.1-.77.22-1.53.34-2.31.2-1.2.4-2.41.63-3.62.13-.73.27-1.43.41-2.16.54-2.67,1.17-5.37,1.89-8.08.18-.69.36-1.38.55-2.07,1.07-3.88,2.33-7.79,3.75-11.71l.55-1.47c.2-.5.4-1,.59-1.52.47-1.25,1-2.51,1.48-3.77s1-2.46,1.57-3.69a1.67,1.67,0,0,0,.08-.2c.47-1.07,1-2.14,1.45-3.21.09-.21.19-.42.29-.63.53-1.15,1.07-2.3,1.63-3.44l.09-.19c.58-1.16,1.17-2.34,1.77-3.51.17-.36.35-.69.54-1,.35-.69.7-1.38,1.08-2.06s.66-1.24,1-1.87.8-1.45,1.21-2.17c.85-1.52,1.72-3,2.62-4.53a19.44,19.44,0,0,1,.23-.36c.71-1.2,1.43-2.39,2.18-3.58s1.49-2.38,2.27-3.58,1.55-2.39,2.35-3.58,1.62-2.39,2.46-3.59,1.61-2.31,2.45-3.47a.62.62,0,0,0,.08-.12c.87-1.19,1.74-2.39,2.64-3.58s1.79-2.4,2.72-3.59c.78-1,1.56-2,2.36-3l.74-.92c.85-1.07,1.72-2.16,2.61-3.23s1.65-2,2.5-3c.21-.26.44-.51.66-.78,1-1.12,1.92-2.25,2.9-3.37s2-2.22,3-3.33c.16-.2.34-.39.51-.58,1-1.09,2-2.17,3-3.26s1.86-2,2.8-3c.38-.42.77-.83,1.17-1.24,1-1,2-2.05,3-3.06s2.23-2.27,3.36-3.4q13.57-13.59,29.69-27C175.93,67,277.14,47.05,343.66,65,431.49,88.66,469.59,197,464.16,290.26Z" style="fill:#025566"></path><path d="M464.16,290.26c-1.68,28.89-7.53,56.32-17.39,79.34a145.62,145.62,0,0,1-14.29,26.11,105.34,105.34,0,0,1-15.35,17.7c-1.85,1.69-3.75,3.34-5.72,5a178,178,0,0,1-18.88,13.66q-5.92,3.74-12.44,7.21c-1,.51-1.91,1-2.87,1.49l-.23.12c-.93.47-1.85.92-2.79,1.36s-1.69.79-2.53,1.16l-1,.46c-.7.31-1.39.61-2.09.89l-.27.12c-.94.4-1.9.78-2.85,1.13,0,0,0,0,0,0-.88.34-1.76.66-2.64,1l-.69.24c-.75.27-1.51.53-2.27.78l-.25.08c-.82.28-1.66.54-2.48.79s-1.52.44-2.27.65-1.23.34-1.85.51c-1.5.39-3,.76-4.48,1.09l-1.75.37-1.62.33c-.93.18-1.84.34-2.75.48-.72.13-1.43.23-2.14.33s-1.5.21-2.25.3l-2.22.26-2.23.21-2.21.16-2.22.12c-.65,0-1.3,0-1.95.06l-.66,0c-.61,0-1.2,0-1.8,0-1.46,0-2.92,0-4.38-.07l-1.55-.06-1-.05-1.52-.1c-1.09-.08-2.17-.17-3.25-.28s-2.35-.24-3.52-.4l-1.61-.22-1-.15-1.64-.26c-2.2-.37-4.37-.8-6.53-1.28l-1.92-.45c-.67-.15-1.31-.32-2-.49l-.13,0c-1.4-.36-2.78-.74-4.16-1.15-1.15-.34-2.29-.69-3.42-1.06-.79-.26-1.56-.51-2.33-.78-.61-.21-1.23-.42-1.83-.65q-6.41-2.29-12.57-5.21c-.6-.27-1.2-.56-1.79-.85l-.39-.2c-.58-.28-1.15-.55-1.72-.84h0c-1.29-.64-2.57-1.32-3.85-2l-.89-.49c-.55-.29-1.09-.6-1.64-.9q-4-2.26-7.91-4.73-1-.61-2-1.26c-.78-.5-1.56-1-2.32-1.53s-1.54-1-2.3-1.57-1.28-.89-1.92-1.34c-2.82-2-5.6-4.1-8.31-6.25-.58-.45-1.14-.91-1.71-1.37l-1.7-1.39c-.57-.46-1.13-.92-1.68-1.4s-1.11-.94-1.66-1.41-1.09-.93-1.62-1.4l-1.76-1.56c-.84-.75-1.67-1.52-2.51-2.28-1.27-1.17-2.52-2.37-3.77-3.56-.52-.5-1-1-1.56-1.52l-1.55-1.53c-1.31-1.31-2.61-2.65-3.89-4l-.09-.1c-1.89-2-3.73-4-5.53-6-.07-.09-.15-.16-.21-.24-1.15-1.29-2.29-2.59-3.39-3.89l-1.91-2.25a54.32,54.32,0,0,0-7.09-7.06c-.31-.27-.64-.53-1-.79l-1-.77c-.59-.45-1.19-.88-1.79-1.29-.31-.21-.6-.42-.91-.62l-1-.66-1-.63-.65-.38c-.28-.18-.58-.35-.86-.51l-1.08-.6-1.62-.85c-.34-.17-.69-.33-1-.51-1.47-.71-3-1.37-4.53-2l-1-.38a105.88,105.88,0,0,0-25.54-5.79c-.42-.06-.85-.1-1.29-.14-2.57-.28-5.19-.51-7.82-.69-1.2-.09-2.39-.17-3.6-.23l-1.7-.09-2.66-.12c-1.33-.06-2.67-.11-4-.15l-1.35,0-.31,0c-.79,0-1.57-.05-2.37-.06l-4-.1-3.37-.08-4.18-.08h-.31l-3.87-.1-2.78-.08-2.65-.07h-.2l-2.67-.09c-4.77-.2-9.49-.48-14.09-.91l-.54-.05-1.37-.14c-2.88-.3-5.72-.67-8.49-1.13l-2.37-.41a95.63,95.63,0,0,1-10.52-2.57c-.39-.12-.78-.24-1.16-.38-1.16-.38-2.31-.78-3.42-1.21-.38-.14-.76-.29-1.13-.45-1-.39-1.9-.8-2.82-1.22L55,351.5c-1.35-.65-2.68-1.34-4-2.09-.54-.31-1.06-.62-1.59-1l-.28-.18-.93-.61c-.61-.41-1.22-.83-1.81-1.27l-.55-.42-.72-.53-.93-.75c-.42-.34-.82-.7-1.23-1.05s-1-.93-1.55-1.42-1.12-1.09-1.67-1.67l-.81-.87-.78-.89c-.3-.34-.59-.68-.87-1s-.44-.55-.67-.84-.49-.63-.74-1c-.49-.65-1-1.32-1.43-2l-.16-.24c-.34-.52-.69-1.06-1-1.6l-.08-.13-.42-.7c-.12-.19-.23-.38-.34-.59s-.4-.7-.59-1.05-.38-.71-.57-1.08-.32-.61-.46-.92-.43-.87-.64-1.32c-.52-1.11-1-2.22-1.49-3.35,0,0,0,0,0,0a.54.54,0,0,0-.05-.11c-.34-.82-.68-1.63-1-2.45a2.18,2.18,0,0,1-.09-.23c-.33-.83-.65-1.66-.95-2.51s-.65-1.77-.95-2.67-.6-1.79-.88-2.69c-.56-1.8-1.08-3.61-1.54-5.43q-.28-1.11-.54-2.22c-.11-.39-.19-.8-.28-1.22-.15-.62-.28-1.25-.4-1.89a1.36,1.36,0,0,1-.06-.29c-.18-.88-.35-1.77-.5-2.66s-.32-1.85-.46-2.79-.27-1.87-.39-2.81-.22-1.87-.31-2.81c-.08-.73-.15-1.48-.2-2.22,0-.33,0-.67-.08-1-.05-.72-.1-1.44-.13-2.17a3.25,3.25,0,0,1,0-.55c0-.48-.06-1-.06-1.46q-.06-1-.06-2c0-.77,0-1.57,0-2.36s0-1.33,0-2c0-.26,0-.52,0-.79,0-.66,0-1.31.07-2,0-.33,0-.69,0-1,0-.61.06-1.23.11-1.83l.06-.95c0-.71.1-1.41.17-2.11,0-.27,0-.54.08-.81.08-.87.17-1.72.27-2.58a.34.34,0,0,1,0-.13c.11-1,.23-1.94.37-2.92.1-.77.22-1.53.34-2.31.2-1.2.4-2.41.63-3.62.13-.73.27-1.43.41-2.16.54-2.67,1.17-5.37,1.89-8.08.18-.69.36-1.38.55-2.07,1.07-3.88,2.33-7.79,3.75-11.71l.55-1.47c.2-.5.4-1,.59-1.52.47-1.25,1-2.51,1.48-3.77s1-2.46,1.57-3.69a1.67,1.67,0,0,0,.08-.2c.47-1.07,1-2.14,1.45-3.21.09-.21.19-.42.29-.63.53-1.15,1.07-2.3,1.63-3.44l.09-.19c.58-1.16,1.17-2.34,1.77-3.51.17-.36.35-.69.54-1,.35-.69.7-1.38,1.08-2.06s.66-1.24,1-1.87.8-1.45,1.21-2.17c.85-1.52,1.72-3,2.62-4.53a19.44,19.44,0,0,1,.23-.36c.71-1.2,1.43-2.39,2.18-3.58s1.49-2.38,2.27-3.58,1.55-2.39,2.35-3.58,1.62-2.39,2.46-3.59,1.61-2.31,2.45-3.47a.62.62,0,0,0,.08-.12c.87-1.19,1.74-2.39,2.64-3.58s1.79-2.4,2.72-3.59c.78-1,1.56-2,2.36-3l.74-.92c.85-1.07,1.72-2.16,2.61-3.23s1.65-2,2.5-3c.21-.26.44-.51.66-.78,1-1.12,1.92-2.25,2.9-3.37s2-2.22,3-3.33c.16-.2.34-.39.51-.58,1-1.09,2-2.17,3-3.26s1.86-2,2.8-3c.38-.42.77-.83,1.17-1.24,1-1,2-2.05,3-3.06s2.23-2.27,3.36-3.4q13.57-13.59,29.69-27C175.93,67,277.14,47.05,343.66,65,431.49,88.66,469.59,197,464.16,290.26Z" style="fill:#fff;opacity:0.7000000000000001"></path></g><g id="freepik--Manual--inject-165"><path d="M261,387V135.5H429.84V388.87l-5.48,3.3h-119c-2.6-.57-24.24-.29-44.31-5.18" style="fill:#bfbfbf;stroke:#263238;stroke-linecap:round;stroke-linejoin:round"></path><path d="M259.44,385.93l-1.23.47c-8.19,3.15-34.31,4.77-43.08,4.77H101V135.5H261Z" style="fill:#263238"></path><path d="M261,387l-1.22.46c-8.2,3.12-34.32,4.72-43.09,4.72h-119V140.68H218.12c9.2,0,34.34-1.76,42.88-5.18h0Z" style="fill:#025566;stroke:#263238;stroke-miterlimit:10"></path><path d="M261,387.34l1.22.46c8.2,3.12,32.32,4.72,41.09,4.72H422.36V141H301.88c-9.2,0-32.34-1.76-40.88-5.18h0Z" style="fill:#fff;stroke:#263238;stroke-linecap:round;stroke-linejoin:round"></path><path d="M121.05,229.84c-.21.61-5,11.06-5.23,11.68-2.66,8.56-2.43,13.71-1,22.59l.19,1.23c.64,16.62-3.9,25.07-12.46,39.33l-1.73,2.89-1.13,1.68h0l-2.53,3.35s.58,3.22-.88,4.52c-5.39,4.75-8.06,5.62-8.86,13.95l-.49,28.27-1.37-.14c-2.88-.3-5.72-.67-8.49-1.13l-2.37-.41a95.63,95.63,0,0,1-10.52-2.57c-.39-.12-.78-.24-1.16-.38-1.16-.38-2.31-.78-3.42-1.21-.38-.14-.76-.29-1.13-.45-1-.39-1.9-.8-2.82-1.22L55,351.5c-1.35-.65-2.68-1.34-4-2.09-.54-.31-1.06-.62-1.59-1,.36-2,.72-3.91,1.07-5.8a393.78,393.78,0,0,0,6.38-60.11L58,243.44a40.84,40.84,0,0,1,11-25.12l24.74-25.73c.64-.67,2.88-1,3.74-1l0,47.54s6.72-22.53,9-28c5.58-13.6,15.23-10.75,17.43-5.8C125.35,208.54,121.2,229.41,121.05,229.84Z" style="fill:#fff"></path><g style="clip-path:url(#freepik--clip-path--inject-165)"><path d="M82.91,218.07l5.43,4.59A83.92,83.92,0,0,0,82,232.34c6,6.81,4.76,18.62-2.46,24.09l5.61-3A19.77,19.77,0,0,1,84,262.23c8.12-7.81,12.2-19.08,13.38-30.29a95.7,95.7,0,0,0,.22-15.7c-.27-4.39.06-10.81-1.83-14.74C94.91,202.74,84.81,219.68,82.91,218.07Z" style="fill:#025566"></path><path d="M82.91,218.07l5.43,4.59A83.92,83.92,0,0,0,82,232.34c6,6.81,4.76,18.62-2.46,24.09l5.61-3A19.77,19.77,0,0,1,84,262.23c8.12-7.81,12.2-19.08,13.38-30.29a95.7,95.7,0,0,0,.22-15.7c-.27-4.39.06-10.81-1.83-14.74C94.91,202.74,84.81,219.68,82.91,218.07Z" style="fill:#fff;opacity:0.5"></path><path d="M97.15,312.6s-8.74,2-9.22,8-.52,10.49-.52,10.49a17.12,17.12,0,0,1,8.86-13.95Z" style="fill:#025566"></path><path d="M97.15,312.6s-8.74,2-9.22,8-.52,10.49-.52,10.49a17.12,17.12,0,0,1,8.86-13.95Z" style="fill:#fff;opacity:0.5"></path><path d="M121.34,203.32l-4.28-.41,1.16,1.3c-2.94,1-6.08,2.06-7.89,4.58s-1.25,6.87,1.71,7.75l-4.07-.87a5.33,5.33,0,0,0,2.64,6.27,15.59,15.59,0,0,0-5.94,8.47c-1.56,5.61,0,12-2.65,17.14a22.52,22.52,0,0,1-5.29,6L83.67,265.22a140.14,140.14,0,0,0,18.66-40.94c2-7.26,3.63-15.15,9.11-20.31a10,10,0,0,1,4.78-2.71,5.37,5.37,0,0,1,5.09,1.54l-1.16-.91Z" style="fill:#025566"></path><g style="opacity:0.5"><path d="M121.34,203.32l-4.28-.41,1.16,1.3c-2.94,1-6.08,2.06-7.89,4.58s-1.25,6.87,1.71,7.75l-4.07-.87a5.33,5.33,0,0,0,2.64,6.27,15.59,15.59,0,0,0-5.94,8.47c-1.56,5.61,0,12-2.65,17.14a22.52,22.52,0,0,1-5.29,6L83.67,265.22a140.14,140.14,0,0,0,18.66-40.94c2-7.26,3.63-15.15,9.11-20.31a10,10,0,0,1,4.78-2.71,5.37,5.37,0,0,1,5.09,1.54l-1.16-.91Z" style="fill:#fff"></path></g></g><path d="M49.4,348.46c.36-2,.72-3.91,1.07-5.8a393.78,393.78,0,0,0,6.38-60.11L58,243.44a40.84,40.84,0,0,1,11-25.12l24.74-25.73c.64-.67,2.88-1,3.74-1l0,47.54s6.72-22.53,9-28c5.58-13.6,15.23-10.75,17.43-5.8,1.45,3.26-2.7,24.13-2.85,24.56-.21.61-5,11.06-5.23,11.68-2.66,8.56-2.43,13.71-1,22.59l.19,1.23c.64,16.62-3.9,25.07-12.46,39.33l-1.73,2.89-1.13,1.68h0l-2.53,3.35s.58,3.22-.88,4.52c-5.39,4.75-8.06,5.62-8.86,13.95l-.49,28.27" style="fill:none;stroke:#263238;stroke-linecap:round;stroke-linejoin:round"></path><path d="M81.27,220.69c4.9,1.88,7.68,2.29,10.54,1.88,2.52-.36,4.68-5.43,5.83-8.49" style="fill:none;stroke:#263238;stroke-linecap:round;stroke-linejoin:round"></path><path d="M79.23,229.84a26.1,26.1,0,0,1,16.35,14.51" style="fill:none;stroke:#263238;stroke-linecap:round;stroke-linejoin:round"></path><path d="M84,265.34a22.28,22.28,0,0,1,6.68-10.54c1.59-1.39,2.32-4.3,3.19-6.22l4.15-10.94" style="fill:none;stroke:#263238;stroke-linecap:round;stroke-linejoin:round"></path><path d="M108.21,215.41l10.22,4.64s4.88-9.91,1.32-14.2" style="fill:none;stroke:#263238;stroke-linecap:round;stroke-linejoin:round"></path><path d="M84.26,254.22A25.64,25.64,0,0,1,92.18,253" style="fill:none;stroke:#263238;stroke-linecap:round;stroke-linejoin:round"></path><path d="M92.06,222.67c.1,1.52,4.23,4.26,5.58,4" style="fill:none;stroke:#263238;stroke-linecap:round;stroke-linejoin:round"></path><path d="M87.06,338.88l.52-16.35a6.36,6.36,0,0,1,2.78-5.15c3.11-2.11,7.86-5.47,10.36-9.67" style="fill:none;stroke:#263238;stroke-linecap:round;stroke-linejoin:round"></path><path d="M392.53,432.06v-46.9l-.7-10.44s-6.31-9.1-5.91-19.15c.33-8.47,10.09-35.16,10.78-37.95.26-1,2.44-18.45,2.44-19.48s1-15.32,4.52-18.45,9.4-4.53,11.14,0,3.48,18.79,2.45,24-3.14,11.49-3.84,16a35.66,35.66,0,0,0,.36,10.09h15.66l2.77-8.7.71-17.41s-8.92-4.56-10.55-9v-4.21c.07-1.45.06-2.94,0-4.28v-4.61c3.1,1.5,23.59,11.51,25.51,14.07,2.09,2.79,3.48,13.93,3.48,13.93l2.76-6.91,0-.06s-8.71-14.26-9.4-16.69c0,0-7-1.74-10.09-5.58s-5.22-7.65-2.09-11.13,20.19,6.26,20.19,6.26l11.41,14.75,5.29,6.83s9.75,9.87,10.14,12.47c.45,2.94-3.88,15.72-3.88,15.72l-14.26,28.55c-.83,1.5-7.7,8.67-14.68,15.77-7.67,7.82-15.47,15.56-15.47,15.56l1.18,10.55a105.34,105.34,0,0,1-15.35,17.7c-1.85,1.69-3.75,3.34-5.72,5a178,178,0,0,1-18.88,13.66" style="fill:#fff"></path><g style="clip-path:url(#freepik--clip-path-2--inject-165)"><path d="M426.57,373.25c1.55-3.87,4.8-6.75,7.69-9.75A70.41,70.41,0,0,0,453,325.67a55.59,55.59,0,0,1-1.12,28.48,47.84,47.84,0,0,0,13.88-21.26,44.7,44.7,0,0,1-9,23.82,33.52,33.52,0,0,0,8.7-12.19c-4.3,10.34-12.54,20.15-20.32,28.05-3.35,3.4-8.76,10.1-13.37,11.63C426.22,386,425,377.21,426.57,373.25Z" style="fill:#025566"></path><path d="M426.57,373.25c1.55-3.87,4.8-6.75,7.69-9.75A70.41,70.41,0,0,0,453,325.67a55.59,55.59,0,0,1-1.12,28.48,47.84,47.84,0,0,0,13.88-21.26,44.7,44.7,0,0,1-9,23.82,33.52,33.52,0,0,0,8.7-12.19c-4.3,10.34-12.54,20.15-20.32,28.05-3.35,3.4-8.76,10.1-13.37,11.63C426.22,386,425,377.21,426.57,373.25Z" style="fill:#025566"></path><path d="M426.57,373.25c1.55-3.87,4.8-6.75,7.69-9.75A70.41,70.41,0,0,0,453,325.67a55.59,55.59,0,0,1-1.12,28.48,47.84,47.84,0,0,0,13.88-21.26,44.7,44.7,0,0,1-9,23.82,33.52,33.52,0,0,0,8.7-12.19c-4.3,10.34-12.54,20.15-20.32,28.05-3.35,3.4-8.76,10.1-13.37,11.63C426.22,386,425,377.21,426.57,373.25Z" style="fill:#fff;opacity:0.5"></path><path d="M431,271.3a16.35,16.35,0,0,0,14.78,7.81,16.86,16.86,0,0,0,5,11.33c2.59,2.57,6.18,4.51,7.25,8a12.93,12.93,0,0,1,0,5.64,165.86,165.86,0,0,1-5.51,24.2V306.51A25.73,25.73,0,0,0,452,300c-1.29-4.9-5.37-8.75-6.42-13.71-8.72-.66-16-9.44-15-18.13Z" style="fill:#025566"></path><path d="M411.84,279.53c-1.53.4-2.14,2.32-1.88,3.89s1.07,3,1.35,4.53-.24,3.49-1.75,4c2.43-.26,4.51,2.07,4.88,4.49s-.49,4.82-1.35,7.11c-2.73,7.29-5.52,14.82-5.16,22.59s4.72,15.93,12.16,18.22c-1.93,0-3.21-2.42-2.57-4.26a5.43,5.43,0,0,1,4.48-3.22,20.82,20.82,0,0,1,5.78.33,10.89,10.89,0,0,0,5.73-.42c-.2-4.63,1-9.19,2.18-13.67l4.92-18.54c.54-2,1.06-4.26.14-6.14s-4-2.67-5.07-.87l1.77-4.71a6.63,6.63,0,0,0-5,3.43l-10-11.65c-1.06,4.36-1.86,9.66,1.41,12.73,1.64,1.54,4,2.13,5.73,3.57,3.06,2.56,3.47,7.07,3.25,11A60.49,60.49,0,0,1,429,330.22l-11.37-.1a6.08,6.08,0,0,1-3.19-.62c-1.46-.9-1.88-2.83-2-4.55-.28-6.15,3.37-14.34,4.61-20.36,1.59-7.68.12-13.43-1.62-21.07a12.18,12.18,0,0,0-2.15-5.14c-.43-.52-3.2-2.83-4-1.83S411.33,278.77,411.84,279.53Z" style="fill:#025566"></path><path d="M431,271.3a16.35,16.35,0,0,0,14.78,7.81,16.86,16.86,0,0,0,5,11.33c2.59,2.57,6.18,4.51,7.25,8a12.93,12.93,0,0,1,0,5.64,165.86,165.86,0,0,1-5.51,24.2V306.51A25.73,25.73,0,0,0,452,300c-1.29-4.9-5.37-8.75-6.42-13.71-8.72-.66-16-9.44-15-18.13Z" style="fill:#025566"></path><path d="M411.84,279.53c-1.53.4-2.14,2.32-1.88,3.89s1.07,3,1.35,4.53-.24,3.49-1.75,4c2.43-.26,4.51,2.07,4.88,4.49s-.49,4.82-1.35,7.11c-2.73,7.29-5.52,14.82-5.16,22.59s4.72,15.93,12.16,18.22c-1.93,0-3.21-2.42-2.57-4.26a5.43,5.43,0,0,1,4.48-3.22,20.82,20.82,0,0,1,5.78.33,10.89,10.89,0,0,0,5.73-.42c-.2-4.63,1-9.19,2.18-13.67l4.92-18.54c.54-2,1.06-4.26.14-6.14s-4-2.67-5.07-.87l1.77-4.71a6.63,6.63,0,0,0-5,3.43l-10-11.65c-1.06,4.36-1.86,9.66,1.41,12.73,1.64,1.54,4,2.13,5.73,3.57,3.06,2.56,3.47,7.07,3.25,11A60.49,60.49,0,0,1,429,330.22l-11.37-.1a6.08,6.08,0,0,1-3.19-.62c-1.46-.9-1.88-2.83-2-4.55-.28-6.15,3.37-14.34,4.61-20.36,1.59-7.68.12-13.43-1.62-21.07a12.18,12.18,0,0,0-2.15-5.14c-.43-.52-3.2-2.83-4-1.83S411.33,278.77,411.84,279.53Z" style="fill:#025566"></path><g style="opacity:0.5"><path d="M431,271.3a16.35,16.35,0,0,0,14.78,7.81,16.86,16.86,0,0,0,5,11.33c2.59,2.57,6.18,4.51,7.25,8a12.93,12.93,0,0,1,0,5.64,165.86,165.86,0,0,1-5.51,24.2V306.51A25.73,25.73,0,0,0,452,300c-1.29-4.9-5.37-8.75-6.42-13.71-8.72-.66-16-9.44-15-18.13Z" style="fill:#fff"></path><path d="M411.84,279.53c-1.53.4-2.14,2.32-1.88,3.89s1.07,3,1.35,4.53-.24,3.49-1.75,4c2.43-.26,4.51,2.07,4.88,4.49s-.49,4.82-1.35,7.11c-2.73,7.29-5.52,14.82-5.16,22.59s4.72,15.93,12.16,18.22c-1.93,0-3.21-2.42-2.57-4.26a5.43,5.43,0,0,1,4.48-3.22,20.82,20.82,0,0,1,5.78.33,10.89,10.89,0,0,0,5.73-.42c-.2-4.63,1-9.19,2.18-13.67l4.92-18.54c.54-2,1.06-4.26.14-6.14s-4-2.67-5.07-.87l1.77-4.71a6.63,6.63,0,0,0-5,3.43l-10-11.65c-1.06,4.36-1.86,9.66,1.41,12.73,1.64,1.54,4,2.13,5.73,3.57,3.06,2.56,3.47,7.07,3.25,11A60.49,60.49,0,0,1,429,330.22l-11.37-.1a6.08,6.08,0,0,1-3.19-.62c-1.46-.9-1.88-2.83-2-4.55-.28-6.15,3.37-14.34,4.61-20.36,1.59-7.68.12-13.43-1.62-21.07a12.18,12.18,0,0,0-2.15-5.14c-.43-.52-3.2-2.83-4-1.83S411.33,278.77,411.84,279.53Z" style="fill:#fff"></path></g><path d="M460.12,355.05q7.88-15.17,15.23-30.6c1.73-3.63,3.47-7.4,3.65-11.43.11-2.63-2.06-12.74-6.05-12.67-2.66,0-4.18,14.06-4.7,16.49Z" style="fill:#025566"></path><path d="M460.12,355.05q7.88-15.17,15.23-30.6c1.73-3.63,3.47-7.4,3.65-11.43.11-2.63-2.06-12.74-6.05-12.67-2.66,0-4.18,14.06-4.7,16.49Z" style="fill:#fff;opacity:0.5"></path></g><path d="M392.53,432.06v-46.9l-.7-10.44s-6.31-9.1-5.91-19.15c.33-8.47,10.09-35.16,10.78-37.95.26-1,2.44-18.45,2.44-19.48s1-15.32,4.52-18.45,9.4-4.53,11.14,0,3.48,18.79,2.45,24-3.14,11.49-3.84,16a35.66,35.66,0,0,0,.36,10.09h15.66l2.77-8.7.71-17.41s-8.92-4.56-10.55-9v-4.21c.07-1.45.06-2.94,0-4.28v-4.61c3.1,1.5,23.59,11.51,25.51,14.07,2.09,2.79,3.48,13.93,3.48,13.93l2.76-6.91,0-.06s-8.71-14.26-9.4-16.69c0,0-7-1.74-10.09-5.58s-5.22-7.65-2.09-11.13,20.19,6.26,20.19,6.26l11.41,14.75,5.29,6.83s9.75,9.87,10.14,12.47c.45,2.94-3.88,15.72-3.88,15.72l-14.26,28.55c-.83,1.5-7.7,8.67-14.68,15.77-7.67,7.82-15.47,15.56-15.47,15.56l1.18,10.55" style="fill:none;stroke:#263238;stroke-linecap:round;stroke-linejoin:round"></path><path d="M471.31,304.79a143.08,143.08,0,0,1-8.58,36.68" style="fill:none;stroke:#263238;stroke-linecap:round;stroke-linejoin:round"></path><path d="M452.08,315.19a90,90,0,0,0,1.18,14.94c.55,3.35,1.22,7.05-.58,9.92" style="fill:none;stroke:#263238;stroke-linecap:round;stroke-linejoin:round"></path><path d="M412.93,292.33l-10.22.47s-.77-10,3.69-12.46" style="fill:none;stroke:#263238;stroke-linecap:round;stroke-linejoin:round"></path><path d="M433.06,304.13a7.73,7.73,0,0,1,.5-4.65" style="fill:none;stroke:#263238;stroke-linecap:round;stroke-linejoin:round"></path><path d="M453.81,303.24l2.86-4.94" style="fill:none;stroke:#263238;stroke-linecap:round;stroke-linejoin:round"></path><path d="M446.08,281.31a6.7,6.7,0,0,0-.91,5.55" style="fill:none;stroke:#263238;stroke-linecap:round;stroke-linejoin:round"></path><path d="M413.14,325.51s-1.17,8.15,3,10.76" style="fill:none;stroke:#263238;stroke-linecap:round;stroke-linejoin:round"></path></g></svg>