<svg xmlns="http://www.w3.org/2000/svg" xmlns:xlink="http://www.w3.org/1999/xlink" viewBox="0 0 500 500"><defs><clipPath id="freepik--clip-path--inject-10"><path d="M472.07,364.4a15.45,15.45,0,0,1-.93,5.44c-1,2.61-2.64,4.31-4.53,4.31h-88.9l-2.58-13.37,1-.41,10.06-4.2a19.66,19.66,0,0,1,7.6-1.54h72.86c1.49,0,2.84,1.07,3.83,2.8A14.44,14.44,0,0,1,472.07,364.4Z" style="fill:#025566;stroke:#263238;stroke-linecap:round;stroke-linejoin:round"></path></clipPath><clipPath id="freepik--clip-path-2--inject-10"><path d="M387.22,359.17H348.43v54.6h38.79c8.07,0,14.62-12.22,14.62-27.3S395.29,359.17,387.22,359.17Z" style="fill:#025566;stroke:#263238;stroke-linecap:round;stroke-linejoin:round"></path></clipPath><clipPath id="freepik--clip-path-3--inject-10"><ellipse cx="346" cy="386.47" rx="13.73" ry="25.63" style="fill:#025566;stroke:#263238;stroke-linecap:round;stroke-linejoin:round"></ellipse></clipPath><clipPath id="freepik--clip-path-4--inject-10"><ellipse cx="343.16" cy="386.47" rx="11.76" ry="24.06" style="fill:#025566;stroke:#263238;stroke-linecap:round;stroke-linejoin:round"></ellipse></clipPath><clipPath id="freepik--clip-path-5--inject-10"><path d="M454.68,367.23v55.49a10.93,10.93,0,0,1-10.93,10.93H368.06a10.94,10.94,0,0,1-10.94-10.93v-9H362c8.08,0,14.62-12.21,14.62-27.29,0-9.34-2.51-17.59-6.34-22.51h81.14A3.26,3.26,0,0,1,454.68,367.23Z" style="fill:#025566;stroke:#263238;stroke-linecap:round;stroke-linejoin:round"></path></clipPath><clipPath id="freepik--clip-path-6--inject-10"><path d="M464.48,394.73a70.49,70.49,0,0,1-4.67,25.21,4.22,4.22,0,0,1-.9,1.39,4.75,4.75,0,0,1-.6.49,4,4,0,0,1-2.29.72H392a5.75,5.75,0,0,1-5.76-5.75V372.67a5.76,5.76,0,0,1,5.76-5.75h64a4.05,4.05,0,0,1,2.89,1.21,4.16,4.16,0,0,1,.9,1.4A70.36,70.36,0,0,1,464.48,394.73Z" style="fill:#025566;stroke:#263238;stroke-linecap:round;stroke-linejoin:round"></path></clipPath></defs><g id="freepik--background-simple--inject-10"><path d="M426.5,390H88.1S13,349.63,42.05,220.44c15-66.75,90.47-130,184-148.66l2.12-.42c28-5.38,53.37-7,75.89-5.73,53.36,3,90.94,22,111.55,45,29.31,32.75-20.34,103.46,1.51,139.78S506.6,340.17,426.5,390Z" style="fill:#025566"></path><path d="M426.5,390H88.1S13,349.63,42.05,220.44c15-66.75,90.47-130,184-148.66l2.12-.42c28-5.38,53.37-7,75.89-5.73,53.36,3,90.94,22,111.55,45,29.31,32.75-20.34,103.46,1.51,139.78S506.6,340.17,426.5,390Z" style="fill:#fff;opacity:0.7000000000000001"></path></g><g id="freepik--Icons--inject-10"><path d="M239.5,111.85l-7.67-4.59v8.2" style="fill:none;stroke:#263238;stroke-linecap:round;stroke-linejoin:round"></path><path d="M231.83,120.21V125" style="fill:none;stroke:#263238;stroke-linecap:round;stroke-linejoin:round"></path><path d="M231.83,125v6.93l7.78-4.66" style="fill:none;stroke:#263238;stroke-linecap:round;stroke-linejoin:round"></path><path d="M243.49,124.91l8.93-5.34-9.74-5.82" style="fill:none;stroke:#263238;stroke-linecap:round;stroke-linejoin:round"></path><path d="M31.15,297.54v-4.27H36v5.06" style="fill:none;stroke:#263238;stroke-linecap:round;stroke-linejoin:round"></path><path d="M36,302v12.91H34.32" style="fill:none;stroke:#263238;stroke-linecap:round;stroke-linejoin:round"></path><path d="M33.26,314.93H31.15v-8.16" style="fill:none;stroke:#263238;stroke-linecap:round;stroke-linejoin:round"></path><path d="M31.15,303.08v-3.43" style="fill:none;stroke:#263238;stroke-linecap:round;stroke-linejoin:round"></path><path d="M41.77,295.69v-2.42h4.84v4.53" style="fill:none;stroke:#263238;stroke-linecap:round;stroke-linejoin:round"></path><path d="M46.61,303.08v4.22" style="fill:none;stroke:#263238;stroke-linecap:round;stroke-linejoin:round"></path><path d="M46.61,309.41v5.52H41.77V297.54" style="fill:none;stroke:#263238;stroke-linecap:round;stroke-linejoin:round"></path><path d="M442.9,286.85h3.56" style="fill:none;stroke:#263238;stroke-linecap:round;stroke-linejoin:round"></path><path d="M450.34,286.85h6.74v21.28h-5.44" style="fill:none;stroke:#263238;stroke-linecap:round;stroke-linejoin:round"></path><path d="M447.11,308.13H435.79v-9" style="fill:none;stroke:#263238;stroke-linecap:round;stroke-linejoin:round"></path><path d="M435.79,296.83v-10H440" style="fill:none;stroke:#263238;stroke-linecap:round;stroke-linejoin:round"></path></g><g id="freepik--device-1--inject-10"><rect x="86.05" y="164.83" width="327.91" height="223.44" rx="3.46" style="fill:#263238"></rect><rect x="90.11" y="174.63" width="319.79" height="198.71" style="fill:#fff;stroke:#263238;stroke-linecap:round;stroke-linejoin:round"></rect><rect x="240.26" y="378.33" width="19.48" height="3.65" rx="1.03" style="fill:#fff"></rect><circle cx="250" cy="169.5" r="2.61" style="fill:#fff"></circle><polygon points="305.59 345.2 305.59 355.63 313.31 350.42 305.59 345.2" style="fill:none;stroke:#263238;stroke-linecap:round;stroke-linejoin:round"></polygon><polygon points="313.75 345.2 313.75 355.63 321.47 350.42 313.75 345.2" style="fill:none;stroke:#263238;stroke-linecap:round;stroke-linejoin:round"></polygon><polygon points="245.99 355.63 245.99 345.2 238.26 350.42 245.99 355.63" style="fill:none;stroke:#263238;stroke-linecap:round;stroke-linejoin:round"></polygon><line x1="237.84" y1="345.2" x2="237.84" y2="355.63" style="fill:#025566;stroke:#263238;stroke-linecap:round;stroke-linejoin:round"></line><line x1="235.63" y1="345.2" x2="235.63" y2="355.63" style="fill:#025566;stroke:#263238;stroke-linecap:round;stroke-linejoin:round"></line><polygon points="332.59 345.2 332.59 355.63 340.32 350.42 332.59 345.2" style="fill:none;stroke:#263238;stroke-linecap:round;stroke-linejoin:round"></polygon><line x1="340.74" y1="355.63" x2="340.74" y2="345.2" style="fill:#025566;stroke:#263238;stroke-linecap:round;stroke-linejoin:round"></line><line x1="342.95" y1="355.63" x2="342.95" y2="345.2" style="fill:#025566;stroke:#263238;stroke-linecap:round;stroke-linejoin:round"></line><polygon points="272.99 355.63 272.99 345.2 265.26 350.42 272.99 355.63" style="fill:none;stroke:#263238;stroke-linecap:round;stroke-linejoin:round"></polygon><polygon points="264.83 355.63 264.83 345.2 257.11 350.42 264.83 355.63" style="fill:none;stroke:#263238;stroke-linecap:round;stroke-linejoin:round"></polygon><polygon points="285.43 345.2 285.43 355.63 293.15 350.42 285.43 345.2" style="fill:none;stroke:#263238;stroke-linecap:round;stroke-linejoin:round"></polygon><rect x="91.96" y="176.12" width="316.08" height="6.85" style="fill:#025566;opacity:0.5"></rect><line x1="91.96" y1="182.97" x2="408.04" y2="182.97" style="fill:none;stroke:#263238;stroke-linecap:round;stroke-linejoin:round"></line><line x1="97.77" y1="179.38" x2="108.01" y2="179.38" style="fill:none;stroke:#263238;stroke-linecap:round;stroke-linejoin:round"></line><line x1="119.2" y1="179.38" x2="128.41" y2="179.38" style="fill:none;stroke:#263238;stroke-linecap:round;stroke-linejoin:round"></line><line x1="140.35" y1="179.38" x2="149.31" y2="179.38" style="fill:none;stroke:#263238;stroke-linecap:round;stroke-linejoin:round"></line><rect x="164.3" y="182.97" width="4.73" height="188.84" style="fill:#263238"></rect><rect x="164.3" y="249.43" width="4.73" height="13.07" rx="1.33" style="fill:#025566;stroke:#263238;stroke-linecap:round;stroke-linejoin:round"></rect><rect x="178.99" y="192.11" width="220.6" height="145.25" style="fill:#263238"></rect><polygon points="276.98 252.43 276.98 277.05 301.6 264.74 276.98 252.43" style="fill:#025566;stroke:#263238;stroke-linecap:round;stroke-linejoin:round"></polygon><rect x="99.04" y="190.2" width="23.55" height="15.51" style="opacity:0.5"></rect><polygon points="108.22 195.35 108.22 200.56 113.42 197.95 108.22 195.35" style="fill:#263238"></polygon><g style="opacity:0.5"><rect x="96.8" y="190.2" width="1.63" height="1.36"></rect><rect x="96.8" y="192.56" width="1.63" height="1.36"></rect><rect x="96.8" y="194.92" width="1.63" height="1.36"></rect><rect x="96.8" y="197.27" width="1.63" height="1.36"></rect><rect x="96.8" y="199.63" width="1.63" height="1.36"></rect><rect x="96.8" y="201.99" width="1.63" height="1.36"></rect><rect x="96.8" y="204.35" width="1.63" height="1.36"></rect><rect x="123.21" y="190.2" width="1.63" height="1.36"></rect><rect x="123.21" y="192.56" width="1.63" height="1.36"></rect><rect x="123.21" y="194.92" width="1.63" height="1.36"></rect><rect x="123.21" y="197.27" width="1.63" height="1.36"></rect><rect x="123.21" y="199.63" width="1.63" height="1.36"></rect><rect x="123.21" y="201.99" width="1.63" height="1.36"></rect><rect x="123.21" y="204.35" width="1.63" height="1.36"></rect></g><line x1="104.35" y1="209.41" x2="117.29" y2="209.41" style="fill:none;stroke:#263238;stroke-linecap:round;stroke-linejoin:round"></line><rect x="132.09" y="190.2" width="23.55" height="15.51" style="opacity:0.5"></rect><polygon points="141.26 195.35 141.26 200.56 146.47 197.95 141.26 195.35" style="fill:#263238"></polygon><g style="opacity:0.5"><rect x="129.84" y="190.2" width="1.63" height="1.36"></rect><rect x="129.84" y="192.56" width="1.63" height="1.36"></rect><rect x="129.84" y="194.92" width="1.63" height="1.36"></rect><rect x="129.84" y="197.27" width="1.63" height="1.36"></rect><rect x="129.84" y="199.63" width="1.63" height="1.36"></rect><rect x="129.84" y="201.99" width="1.63" height="1.36"></rect><rect x="129.84" y="204.35" width="1.63" height="1.36"></rect><rect x="156.25" y="190.2" width="1.63" height="1.36"></rect><rect x="156.25" y="192.56" width="1.63" height="1.36"></rect><rect x="156.25" y="194.92" width="1.63" height="1.36"></rect><rect x="156.25" y="197.27" width="1.63" height="1.36"></rect><rect x="156.25" y="199.63" width="1.63" height="1.36"></rect><rect x="156.25" y="201.99" width="1.63" height="1.36"></rect><rect x="156.25" y="204.35" width="1.63" height="1.36"></rect></g><line x1="137.4" y1="209.41" x2="150.33" y2="209.41" style="fill:none;stroke:#263238;stroke-linecap:round;stroke-linejoin:round"></line><rect x="99.04" y="216.57" width="23.55" height="15.51" style="opacity:0.5"></rect><polygon points="108.22 221.72 108.22 226.92 113.42 224.32 108.22 221.72" style="fill:#263238"></polygon><g style="opacity:0.5"><rect x="96.8" y="216.57" width="1.63" height="1.36"></rect><rect x="96.8" y="218.92" width="1.63" height="1.36"></rect><rect x="96.8" y="221.28" width="1.63" height="1.36"></rect><rect x="96.8" y="223.64" width="1.63" height="1.36"></rect><rect x="96.8" y="226" width="1.63" height="1.36"></rect><rect x="96.8" y="228.35" width="1.63" height="1.36"></rect><rect x="96.8" y="230.71" width="1.63" height="1.36"></rect><rect x="123.21" y="216.57" width="1.63" height="1.36"></rect><rect x="123.21" y="218.92" width="1.63" height="1.36"></rect><rect x="123.21" y="221.28" width="1.63" height="1.36"></rect><rect x="123.21" y="223.64" width="1.63" height="1.36"></rect><rect x="123.21" y="226" width="1.63" height="1.36"></rect><rect x="123.21" y="228.35" width="1.63" height="1.36"></rect><rect x="123.21" y="230.71" width="1.63" height="1.36"></rect></g><line x1="104.35" y1="235.77" x2="117.29" y2="235.77" style="fill:none;stroke:#263238;stroke-linecap:round;stroke-linejoin:round"></line><rect x="132.09" y="216.57" width="23.55" height="15.51" style="opacity:0.5"></rect><polygon points="141.26 221.72 141.26 226.92 146.47 224.32 141.26 221.72" style="fill:#263238"></polygon><g style="opacity:0.5"><rect x="129.84" y="216.57" width="1.63" height="1.36"></rect><rect x="129.84" y="218.92" width="1.63" height="1.36"></rect><rect x="129.84" y="221.28" width="1.63" height="1.36"></rect><rect x="129.84" y="223.64" width="1.63" height="1.36"></rect><rect x="129.84" y="226" width="1.63" height="1.36"></rect><rect x="129.84" y="228.35" width="1.63" height="1.36"></rect><rect x="129.84" y="230.71" width="1.63" height="1.36"></rect><rect x="156.25" y="216.57" width="1.63" height="1.36"></rect><rect x="156.25" y="218.92" width="1.63" height="1.36"></rect><rect x="156.25" y="221.28" width="1.63" height="1.36"></rect><rect x="156.25" y="223.64" width="1.63" height="1.36"></rect><rect x="156.25" y="226" width="1.63" height="1.36"></rect><rect x="156.25" y="228.35" width="1.63" height="1.36"></rect><rect x="156.25" y="230.71" width="1.63" height="1.36"></rect></g><line x1="137.4" y1="235.77" x2="150.33" y2="235.77" style="fill:none;stroke:#263238;stroke-linecap:round;stroke-linejoin:round"></line><rect x="99.04" y="242.93" width="23.55" height="15.51" style="opacity:0.5"></rect><polygon points="108.22 248.09 108.22 253.29 113.42 250.69 108.22 248.09" style="fill:#263238"></polygon><g style="opacity:0.5"><rect x="96.8" y="242.93" width="1.63" height="1.36"></rect><rect x="96.8" y="245.29" width="1.63" height="1.36"></rect><rect x="96.8" y="247.65" width="1.63" height="1.36"></rect><rect x="96.8" y="250.01" width="1.63" height="1.36"></rect><rect x="96.8" y="252.36" width="1.63" height="1.36"></rect><rect x="96.8" y="254.72" width="1.63" height="1.36"></rect><rect x="96.8" y="257.08" width="1.63" height="1.36"></rect><rect x="123.21" y="242.93" width="1.63" height="1.36"></rect><rect x="123.21" y="245.29" width="1.63" height="1.36"></rect><rect x="123.21" y="247.65" width="1.63" height="1.36"></rect><rect x="123.21" y="250.01" width="1.63" height="1.36"></rect><rect x="123.21" y="252.36" width="1.63" height="1.36"></rect><rect x="123.21" y="254.72" width="1.63" height="1.36"></rect><rect x="123.21" y="257.08" width="1.63" height="1.36"></rect></g><line x1="104.35" y1="262.14" x2="117.29" y2="262.14" style="fill:none;stroke:#263238;stroke-linecap:round;stroke-linejoin:round"></line><rect x="132.09" y="242.93" width="23.55" height="15.51" style="opacity:0.5"></rect><polygon points="141.26 248.09 141.26 253.29 146.47 250.69 141.26 248.09" style="fill:#263238"></polygon><g style="opacity:0.5"><rect x="129.84" y="242.93" width="1.63" height="1.36"></rect><rect x="129.84" y="245.29" width="1.63" height="1.36"></rect><rect x="129.84" y="247.65" width="1.63" height="1.36"></rect><rect x="129.84" y="250.01" width="1.63" height="1.36"></rect><rect x="129.84" y="252.36" width="1.63" height="1.36"></rect><rect x="129.84" y="254.72" width="1.63" height="1.36"></rect><rect x="129.84" y="257.08" width="1.63" height="1.36"></rect><rect x="156.25" y="242.93" width="1.63" height="1.36"></rect><rect x="156.25" y="245.29" width="1.63" height="1.36"></rect><rect x="156.25" y="247.65" width="1.63" height="1.36"></rect><rect x="156.25" y="250.01" width="1.63" height="1.36"></rect><rect x="156.25" y="252.36" width="1.63" height="1.36"></rect><rect x="156.25" y="254.72" width="1.63" height="1.36"></rect><rect x="156.25" y="257.08" width="1.63" height="1.36"></rect></g><line x1="137.4" y1="262.14" x2="150.33" y2="262.14" style="fill:none;stroke:#263238;stroke-linecap:round;stroke-linejoin:round"></line><rect x="99.04" y="269.3" width="23.55" height="15.51" style="opacity:0.5"></rect><polygon points="108.22 274.45 108.22 279.65 113.42 277.05 108.22 274.45" style="fill:#263238"></polygon><g style="opacity:0.5"><rect x="96.8" y="269.3" width="1.63" height="1.36"></rect><rect x="96.8" y="271.66" width="1.63" height="1.36"></rect><rect x="96.8" y="274.01" width="1.63" height="1.36"></rect><rect x="96.8" y="276.37" width="1.63" height="1.36"></rect><rect x="96.8" y="278.73" width="1.63" height="1.36"></rect><rect x="96.8" y="281.09" width="1.63" height="1.36"></rect><rect x="96.8" y="283.45" width="1.63" height="1.36"></rect><rect x="123.21" y="269.3" width="1.63" height="1.36"></rect><rect x="123.21" y="271.66" width="1.63" height="1.36"></rect><rect x="123.21" y="274.01" width="1.63" height="1.36"></rect><rect x="123.21" y="276.37" width="1.63" height="1.36"></rect><rect x="123.21" y="278.73" width="1.63" height="1.36"></rect><rect x="123.21" y="281.09" width="1.63" height="1.36"></rect><rect x="123.21" y="283.45" width="1.63" height="1.36"></rect></g><line x1="104.35" y1="288.51" x2="117.29" y2="288.51" style="fill:none;stroke:#263238;stroke-linecap:round;stroke-linejoin:round"></line><rect x="132.09" y="269.3" width="23.55" height="15.51" style="opacity:0.5"></rect><polygon points="141.26 274.45 141.26 279.65 146.47 277.05 141.26 274.45" style="fill:#263238"></polygon><g style="opacity:0.5"><rect x="129.84" y="269.3" width="1.63" height="1.36"></rect><rect x="129.84" y="271.66" width="1.63" height="1.36"></rect><rect x="129.84" y="274.01" width="1.63" height="1.36"></rect><rect x="129.84" y="276.37" width="1.63" height="1.36"></rect><rect x="129.84" y="278.73" width="1.63" height="1.36"></rect><rect x="129.84" y="281.09" width="1.63" height="1.36"></rect><rect x="129.84" y="283.45" width="1.63" height="1.36"></rect><rect x="156.25" y="269.3" width="1.63" height="1.36"></rect><rect x="156.25" y="271.66" width="1.63" height="1.36"></rect><rect x="156.25" y="274.01" width="1.63" height="1.36"></rect><rect x="156.25" y="276.37" width="1.63" height="1.36"></rect><rect x="156.25" y="278.73" width="1.63" height="1.36"></rect><rect x="156.25" y="281.09" width="1.63" height="1.36"></rect><rect x="156.25" y="283.45" width="1.63" height="1.36"></rect></g><line x1="137.4" y1="288.51" x2="150.33" y2="288.51" style="fill:none;stroke:#263238;stroke-linecap:round;stroke-linejoin:round"></line><rect x="99.04" y="295.67" width="23.55" height="15.51" style="opacity:0.5"></rect><polygon points="108.22 300.82 108.22 306.02 113.42 303.42 108.22 300.82" style="fill:#263238"></polygon><g style="opacity:0.5"><rect x="96.8" y="295.67" width="1.63" height="1.36"></rect><rect x="96.8" y="298.02" width="1.63" height="1.36"></rect><rect x="96.8" y="300.38" width="1.63" height="1.36"></rect><rect x="96.8" y="302.74" width="1.63" height="1.36"></rect><rect x="96.8" y="305.1" width="1.63" height="1.36"></rect><rect x="96.8" y="307.45" width="1.63" height="1.36"></rect><rect x="96.8" y="309.81" width="1.63" height="1.36"></rect><rect x="123.21" y="295.67" width="1.63" height="1.36"></rect><rect x="123.21" y="298.02" width="1.63" height="1.36"></rect><rect x="123.21" y="300.38" width="1.63" height="1.36"></rect><rect x="123.21" y="302.74" width="1.63" height="1.36"></rect><rect x="123.21" y="305.1" width="1.63" height="1.36"></rect><rect x="123.21" y="307.45" width="1.63" height="1.36"></rect><rect x="123.21" y="309.81" width="1.63" height="1.36"></rect></g><line x1="104.35" y1="314.87" x2="117.29" y2="314.87" style="fill:none;stroke:#263238;stroke-linecap:round;stroke-linejoin:round"></line><rect x="132.09" y="295.67" width="23.55" height="15.51" style="opacity:0.5"></rect><polygon points="141.26 300.82 141.26 306.02 146.47 303.42 141.26 300.82" style="fill:#263238"></polygon><g style="opacity:0.5"><rect x="129.84" y="295.67" width="1.63" height="1.36"></rect><rect x="129.84" y="298.02" width="1.63" height="1.36"></rect><rect x="129.84" y="300.38" width="1.63" height="1.36"></rect><rect x="129.84" y="302.74" width="1.63" height="1.36"></rect><rect x="129.84" y="305.1" width="1.63" height="1.36"></rect><rect x="129.84" y="307.45" width="1.63" height="1.36"></rect><rect x="129.84" y="309.81" width="1.63" height="1.36"></rect><rect x="156.25" y="295.67" width="1.63" height="1.36"></rect><rect x="156.25" y="298.02" width="1.63" height="1.36"></rect><rect x="156.25" y="300.38" width="1.63" height="1.36"></rect><rect x="156.25" y="302.74" width="1.63" height="1.36"></rect><rect x="156.25" y="305.1" width="1.63" height="1.36"></rect><rect x="156.25" y="307.45" width="1.63" height="1.36"></rect><rect x="156.25" y="309.81" width="1.63" height="1.36"></rect></g><line x1="137.4" y1="314.87" x2="150.33" y2="314.87" style="fill:none;stroke:#263238;stroke-linecap:round;stroke-linejoin:round"></line><rect x="99.04" y="322.03" width="23.55" height="15.51" style="opacity:0.5"></rect><polygon points="108.22 327.18 108.22 332.39 113.42 329.79 108.22 327.18" style="fill:#263238"></polygon><g style="opacity:0.5"><rect x="96.8" y="322.03" width="1.63" height="1.36"></rect><rect x="96.8" y="324.39" width="1.63" height="1.36"></rect><rect x="96.8" y="326.75" width="1.63" height="1.36"></rect><rect x="96.8" y="329.11" width="1.63" height="1.36"></rect><rect x="96.8" y="331.46" width="1.63" height="1.36"></rect><rect x="96.8" y="333.82" width="1.63" height="1.36"></rect><rect x="96.8" y="336.18" width="1.63" height="1.36"></rect><rect x="123.21" y="322.03" width="1.63" height="1.36"></rect><rect x="123.21" y="324.39" width="1.63" height="1.36"></rect><rect x="123.21" y="326.75" width="1.63" height="1.36"></rect><rect x="123.21" y="329.11" width="1.63" height="1.36"></rect><rect x="123.21" y="331.46" width="1.63" height="1.36"></rect><rect x="123.21" y="333.82" width="1.63" height="1.36"></rect><rect x="123.21" y="336.18" width="1.63" height="1.36"></rect></g><line x1="104.35" y1="341.24" x2="117.29" y2="341.24" style="fill:none;stroke:#263238;stroke-linecap:round;stroke-linejoin:round"></line><rect x="132.09" y="322.03" width="23.55" height="15.51" style="opacity:0.5"></rect><polygon points="141.26 327.18 141.26 332.39 146.47 329.79 141.26 327.18" style="fill:#263238"></polygon><g style="opacity:0.5"><rect x="129.84" y="322.03" width="1.63" height="1.36"></rect><rect x="129.84" y="324.39" width="1.63" height="1.36"></rect><rect x="129.84" y="326.75" width="1.63" height="1.36"></rect><rect x="129.84" y="329.11" width="1.63" height="1.36"></rect><rect x="129.84" y="331.46" width="1.63" height="1.36"></rect><rect x="129.84" y="333.82" width="1.63" height="1.36"></rect><rect x="129.84" y="336.18" width="1.63" height="1.36"></rect><rect x="156.25" y="322.03" width="1.63" height="1.36"></rect><rect x="156.25" y="324.39" width="1.63" height="1.36"></rect><rect x="156.25" y="326.75" width="1.63" height="1.36"></rect><rect x="156.25" y="329.11" width="1.63" height="1.36"></rect><rect x="156.25" y="331.46" width="1.63" height="1.36"></rect><rect x="156.25" y="333.82" width="1.63" height="1.36"></rect><rect x="156.25" y="336.18" width="1.63" height="1.36"></rect></g><line x1="137.4" y1="341.24" x2="150.33" y2="341.24" style="fill:none;stroke:#263238;stroke-linecap:round;stroke-linejoin:round"></line><rect x="99.04" y="348.4" width="23.55" height="15.51" style="opacity:0.5"></rect><polygon points="108.22 353.55 108.22 358.75 113.42 356.15 108.22 353.55" style="fill:#263238"></polygon><g style="opacity:0.5"><rect x="96.8" y="348.4" width="1.63" height="1.36"></rect><rect x="96.8" y="350.76" width="1.63" height="1.36"></rect><rect x="96.8" y="353.11" width="1.63" height="1.36"></rect><rect x="96.8" y="355.47" width="1.63" height="1.36"></rect><rect x="96.8" y="357.83" width="1.63" height="1.36"></rect><rect x="96.8" y="360.19" width="1.63" height="1.36"></rect><rect x="96.8" y="362.55" width="1.63" height="1.36"></rect><rect x="123.21" y="348.4" width="1.63" height="1.36"></rect><rect x="123.21" y="350.76" width="1.63" height="1.36"></rect><rect x="123.21" y="353.11" width="1.63" height="1.36"></rect><rect x="123.21" y="355.47" width="1.63" height="1.36"></rect><rect x="123.21" y="357.83" width="1.63" height="1.36"></rect><rect x="123.21" y="360.19" width="1.63" height="1.36"></rect><rect x="123.21" y="362.55" width="1.63" height="1.36"></rect></g><line x1="104.35" y1="367.61" x2="117.29" y2="367.61" style="fill:none;stroke:#263238;stroke-linecap:round;stroke-linejoin:round"></line><rect x="132.09" y="348.4" width="23.55" height="15.51" style="opacity:0.5"></rect><polygon points="141.26 353.55 141.26 358.75 146.47 356.15 141.26 353.55" style="fill:#263238"></polygon><g style="opacity:0.5"><rect x="129.84" y="348.4" width="1.63" height="1.36"></rect><rect x="129.84" y="350.76" width="1.63" height="1.36"></rect><rect x="129.84" y="353.11" width="1.63" height="1.36"></rect><rect x="129.84" y="355.47" width="1.63" height="1.36"></rect><rect x="129.84" y="357.83" width="1.63" height="1.36"></rect><rect x="129.84" y="360.19" width="1.63" height="1.36"></rect><rect x="129.84" y="362.55" width="1.63" height="1.36"></rect><rect x="156.25" y="348.4" width="1.63" height="1.36"></rect><rect x="156.25" y="350.76" width="1.63" height="1.36"></rect><rect x="156.25" y="353.11" width="1.63" height="1.36"></rect><rect x="156.25" y="355.47" width="1.63" height="1.36"></rect><rect x="156.25" y="357.83" width="1.63" height="1.36"></rect><rect x="156.25" y="360.19" width="1.63" height="1.36"></rect><rect x="156.25" y="362.55" width="1.63" height="1.36"></rect></g><line x1="137.4" y1="367.61" x2="150.33" y2="367.61" style="fill:none;stroke:#263238;stroke-linecap:round;stroke-linejoin:round"></line><path d="M415.46,400.13H84.54c-9.54,0-37.93-4-37.93-4H453.39S425,400.13,415.46,400.13Z" style="fill:#999;stroke:#263238;stroke-linecap:round;stroke-linejoin:round"></path><path d="M453.39,396.1H46.61a1.12,1.12,0,0,1-.23-2.21l38.16-8.16H415.46l38.16,8.16A1.12,1.12,0,0,1,453.39,396.1Z" style="fill:#bfbfbf;stroke:#263238;stroke-linecap:round;stroke-linejoin:round"></path><polygon points="431.17 390.92 68.83 390.92 85.32 387.04 414.68 387.04 431.17 390.92" style="fill:none;stroke:#263238;stroke-linecap:round;stroke-linejoin:round"></polygon></g></svg>