<svg xmlns="http://www.w3.org/2000/svg" xmlns:xlink="http://www.w3.org/1999/xlink" viewBox="0 0 500 500"><defs><clipPath id="freepik--clip-path--inject-246"><polygon points="222.19 129.12 240.78 132.97 247.12 139.55 255.39 140.81 258.02 148.66 256.09 153.97 250.46 156.55 236.65 154.29 236.27 152.6 242.8 148.05 238.29 139.73 225.94 138.04 219.37 132.4 222.19 129.12" style="fill:none;stroke:#999;stroke-miterlimit:10"></polygon></clipPath><clipPath id="freepik--clip-path-2--inject-246"><path d="M372.07,300.74l-14.75-2.49L339.52,296l-13.1,2.91-12.82.19-12.87,6-7.51,2.11-4.65,1-7.75,7.05-7.71,5.26-13-4.65.33-12.5L252.59,302l-8.45,1.88L242,300.35l-.85-7.8L237.29,289l-5.73,2.16-.75,4.6-7.1,2-8-6.2L210.9,282l3.71-13.24,12.44-1.88,4,2.21,5.07-1.13,5.5-5.21,5.87.47,10.52,11.41,2.86-1.08-3-9.53-3.67-4.51-.93-8.22L267.44,241l-1.36-16.11,5.55-7L275,207l4-1.79,8.32-8.49-.33-3.48-6.67,1.92-2-3.1-4.65,1-6.81,3.28,2.16-6.24,13.86-7.51,2.53-4.56,8,8L298,189l5.55-3-3.76-4.93-10.28-4.37-12.68-9.16-12.17-4.84-10.52.56L248,159.32l-7.14-.19-.47,1.88,1.87,12.44,2.63,3.85-.8,14.37-9.95-4.88-.05-6.2-9.81-2.26-4.84-3.8-.23-11,10.28-11.59-1.4-10.34L223.5,143l-3.8-3.15L217,133.81l-3.05.24-.19,7.14-4.46,1.87-5.4-14.32-3.85-1.36-6.48-1.23-6,4.89,10.23,6.15L201.1,144l-17.75-8-13.1-9.07-3.38-11.22-11.74-.94-7.24,7.37a67.32,67.32,0,0,1-5.59,4.79c-1.92,1.31-9.76,3.94-9.76,3.94l-.1,7.56L122.81,141l1.88,4.47,16.2-.94,10,7.09,3.28,14.8-1.74,14.13,3.94,13.76-7.23,23.34,4.31,31.42L161.21,266l8.5,12.3,6.53-.56-3.62-6.29-4.51-4.33-4.17-8.82,3.61-1.69,9.3,13.9,7.23,12.59,2.44,11L196.71,302l16.72,7.38,23.29,1,8.17,4.84,6.57,5.64,8.65,3,9.86.47,9.2-2.49s.52,4.32,1,6.44-3.85,10.61-3.85,10.61l-2.78,9.49,5.45,8.54,10.14,1.74,16.11,10.62,6.48,1.22,1.41,6.34,1.39,2.79a181.81,181.81,0,0,0,79.39-61.42l-.47-3.11,6.82-23.25-6.34-2.58Z" style="fill:none;stroke:#999;stroke-miterlimit:10;clip-path:url(#freepik--clip-path--inject-246)"></path></clipPath><clipPath id="freepik--clip-path-3--inject-246"><path d="M379,124l-6.43-7-8-8L360,96.73l7.89-.42L367.4,92l-5.59.8L366,89.64l4.42-4.08-.94-4.23-6.57-5.64-3.11-8.85a182.56,182.56,0,0,0-220.26-4.23l11.28,4.74-4.22,8.92-7.66,3.48,1.69,11.6-3.1,2L134.32,99l2.12,7.52,7.37-.75-1.36,7.84,7.18-1.59,8.79-18.37-.24-7,11.65-3.47,1.83-5.73,12-4-.33-7.47,8.78-2.39s5.59-4.79,6.86-5.08,7.66.52,7.66.52l7.46,3.67,8.88-2,6.57-6.34L239.43,53a10.71,10.71,0,0,0,5,.66c2.11-.47,7.79-4.83,7.79-4.83L266.2,53.7l5.92,2.68,1.41,6.34,6.53-.56,1.26-4.28,6.06,1.32.33,3.47-11.93,6.2,9.25,7.7,17.09,5.08,8.22,7,9.49-1.21,1.17-4.7,3.2-1.6-12.87-6-6.95.66,5.12-2.91-6.67-6.06,7.09-2,10.43,3,4.36,9.68L330.58,82l6.53,11.41,10.8,4.7,3.1,14,11.13,4.18.61,4.75-.05,5.77,4.23,7,1.69,3.61,7.46-.32,1.79-7.94Z" style="fill:none;stroke:#999;stroke-miterlimit:10;clip-path:url(#freepik--clip-path-2--inject-246)"></path></clipPath><clipPath id="freepik--clip-path-4--inject-246"><path d="M375,80.22l.54,2.43-.61,7.23,2.58,5.63,5,.66,1.79,8-5.55-1,3.81,23.1-3,10.43,6,11.08,6.62,3.85,5.07,22.83L406.69,191l8.93,12.21,10.28.38,1.5-9.21,1.14-1.38A182.84,182.84,0,0,0,375,80.22Z" style="fill:none;stroke:#999;stroke-miterlimit:10;clip-path:url(#freepik--clip-path-3--inject-246)"></path></clipPath><clipPath id="freepik--clip-path-5--inject-246"><polygon points="276.76 99.26 246.14 93.19 233.98 96.34 232.81 105.03 226.51 100.66 217.68 104.84 219.94 118.97 228.76 122.78 232.47 113.53 240.22 118.46 255.86 126.96 261.12 138.66 275.2 150.16 292.3 143.26 290.47 137.02 285.07 130.68 280.47 113.96 283.1 105.83 276.76 99.26" style="fill:none;stroke:#999;stroke-miterlimit:10;clip-path:url(#freepik--clip-path-4--inject-246)"></polygon></clipPath><clipPath id="freepik--clip-path-6--inject-246"><polygon points="301.65 103.49 294.94 103.2 290.47 109.07 296.15 120.67 301.65 119.45 301.65 103.49" style="fill:none;stroke:#999;stroke-miterlimit:10;clip-path:url(#freepik--clip-path-5--inject-246)"></polygon></clipPath><clipPath id="freepik--clip-path-7--inject-246"><polygon points="342.74 102.79 326.68 98.37 322.6 93.96 319.5 95.97 324.33 103.77 329.31 114.2 336.21 115.33 337.11 113.35 331.89 107.86 343.82 109.64 342.74 102.79" style="fill:none;stroke:#999;stroke-miterlimit:10;clip-path:url(#freepik--clip-path-6--inject-246)"></polygon></clipPath></defs><g id="freepik--background-simple--inject-246"><path d="M330,418.27s86.5-18,116.61-135.82S428.71,79.83,354,53.51,218.89,5.66,152.3,23.29,45.37,101.4,42.35,192.53s18.88,148.06,83.39,178.69S260.51,434.75,330,418.27Z" style="fill:#025566"></path><path d="M330,418.27s86.5-18,116.61-135.82S428.71,79.83,354,53.51,218.89,5.66,152.3,23.29,45.37,101.4,42.35,192.53s18.88,148.06,83.39,178.69S260.51,434.75,330,418.27Z" style="fill:#fff;opacity:0.7000000000000001"></path></g><g id="freepik--Floor--inject-246"><line x1="59.52" y1="422.18" x2="460.61" y2="422.18" style="fill:none;stroke:#263238;stroke-miterlimit:10"></line></g><g id="freepik--earth-globe--inject-246"><polygon points="222.19 129.12 240.78 132.97 247.12 139.55 255.39 140.81 258.02 148.66 256.09 153.97 250.46 156.55 236.65 154.29 236.27 152.6 242.8 148.05 238.29 139.73 225.94 138.04 219.37 132.4 222.19 129.12" style="fill:none;stroke:#999;stroke-miterlimit:10"></polygon><path d="M372.07,300.74l-14.75-2.49L339.52,296l-13.1,2.91-12.82.19-12.87,6-7.51,2.11-4.65,1-7.75,7.05-7.71,5.26-13-4.65.33-12.5L252.59,302l-8.45,1.88L242,300.35l-.85-7.8L237.29,289l-5.73,2.16-.75,4.6-7.1,2-8-6.2L210.9,282l3.71-13.24,12.44-1.88,4,2.21,5.07-1.13,5.5-5.21,5.87.47,10.52,11.41,2.86-1.08-3-9.53-3.67-4.51-.93-8.22L267.44,241l-1.36-16.11,5.55-7L275,207l4-1.79,8.32-8.49-.33-3.48-6.67,1.92-2-3.1-4.65,1-6.81,3.28,2.16-6.24,13.86-7.51,2.53-4.56,8,8L298,189l5.55-3-3.76-4.93-10.28-4.37-12.68-9.16-12.17-4.84-10.52.56L248,159.32l-7.14-.19-.47,1.88,1.87,12.44,2.63,3.85-.8,14.37-9.95-4.88-.05-6.2-9.81-2.26-4.84-3.8-.23-11,10.28-11.59-1.4-10.34L223.5,143l-3.8-3.15L217,133.81l-3.05.24-.19,7.14-4.46,1.87-5.4-14.32-3.85-1.36-6.48-1.23-6,4.89,10.23,6.15L201.1,144l-17.75-8-13.1-9.07-3.38-11.22-11.74-.94-7.24,7.37a67.32,67.32,0,0,1-5.59,4.79c-1.92,1.31-9.76,3.94-9.76,3.94l-.1,7.56L122.81,141l1.88,4.47,16.2-.94,10,7.09,3.28,14.8-1.74,14.13,3.94,13.76-7.23,23.34,4.31,31.42L161.21,266l8.5,12.3,6.53-.56-3.62-6.29-4.51-4.33-4.17-8.82,3.61-1.69,9.3,13.9,7.23,12.59,2.44,11L196.71,302l16.72,7.38,23.29,1,8.17,4.84,6.57,5.64,8.65,3,9.86.47,9.2-2.49s.52,4.32,1,6.44-3.85,10.61-3.85,10.61l-2.78,9.49,5.45,8.54,10.14,1.74,16.11,10.62,6.48,1.22,1.41,6.34,1.39,2.79a181.81,181.81,0,0,0,79.39-61.42l-.47-3.11,6.82-23.25-6.34-2.58Z" style="fill:none;stroke:#999;stroke-miterlimit:10"></path><path d="M379,124l-6.43-7-8-8L360,96.73l7.89-.42L367.4,92l-5.59.8L366,89.64l4.42-4.08-.94-4.23-6.57-5.64-3.11-8.85a182.56,182.56,0,0,0-220.26-4.23l11.28,4.74-4.22,8.92-7.66,3.48,1.69,11.6-3.1,2L134.32,99l2.12,7.52,7.37-.75-1.36,7.84,7.18-1.59,8.79-18.37-.24-7,11.65-3.47,1.83-5.73,12-4-.33-7.47,8.78-2.39s5.59-4.79,6.86-5.08,7.66.52,7.66.52l7.46,3.67,8.88-2,6.57-6.34L239.43,53a10.71,10.71,0,0,0,5,.66c2.11-.47,7.79-4.83,7.79-4.83L266.2,53.7l5.92,2.68,1.41,6.34,6.53-.56,1.26-4.28,6.06,1.32.33,3.47-11.93,6.2,9.25,7.7,17.09,5.08,8.22,7,9.49-1.21,1.17-4.7,3.2-1.6-12.87-6-6.95.66,5.12-2.91-6.67-6.06,7.09-2,10.43,3,4.36,9.68L330.58,82l6.53,11.41,10.8,4.7,3.1,14,11.13,4.18.61,4.75-.05,5.77,4.23,7,1.69,3.61,7.46-.32,1.79-7.94Z" style="fill:none;stroke:#999;stroke-miterlimit:10"></path><path d="M375,80.22l.54,2.43-.61,7.23,2.58,5.63,5,.66,1.79,8-5.55-1,3.81,23.1-3,10.43,6,11.08,6.62,3.85,5.07,22.83L406.69,191l8.93,12.21,10.28.38,1.5-9.21,1.14-1.38A182.84,182.84,0,0,0,375,80.22Z" style="fill:none;stroke:#999;stroke-miterlimit:10"></path><polygon points="276.76 99.26 246.14 93.19 233.98 96.34 232.81 105.03 226.51 100.66 217.68 104.84 219.94 118.97 228.76 122.78 232.47 113.53 240.22 118.46 255.86 126.96 261.12 138.66 275.2 150.16 292.3 143.26 290.47 137.02 285.07 130.68 280.47 113.96 283.1 105.83 276.76 99.26" style="fill:none;stroke:#999;stroke-miterlimit:10"></polygon><polygon points="301.65 103.49 294.94 103.2 290.47 109.07 296.15 120.67 301.65 119.45 301.65 103.49" style="fill:none;stroke:#999;stroke-miterlimit:10"></polygon><polygon points="342.74 102.79 326.68 98.37 322.6 93.96 319.5 95.97 324.33 103.77 329.31 114.2 336.21 115.33 337.11 113.35 331.89 107.86 343.82 109.64 342.74 102.79" style="fill:none;stroke:#999;stroke-miterlimit:10"></polygon><polygon points="253.21 282.78 251.89 284.85 265.42 285.84 271.8 290.63 280.02 289.69 281.95 284.38 271.85 284.85 253.21 282.78" style="fill:none;stroke:#999;stroke-miterlimit:10"></polygon><polygon points="292.61 282.46 284.3 286.97 286.31 290.07 297.31 287.63 298.67 283.78 294.96 285.04 292.61 282.46" style="fill:none;stroke:#999;stroke-miterlimit:10"></polygon><circle cx="246.9" cy="210.14" r="182.43" transform="translate(-76.28 236.14) rotate(-45)" style="fill:none;stroke:#999;stroke-miterlimit:10"></circle></g><g id="freepik--Michrophone--inject-246"><rect x="110.41" y="188.22" width="149.86" height="15.67" style="fill:#fff;stroke:#263238;stroke-miterlimit:10"></rect><path d="M248.27,183.52V273.8c0,31.64-28.06,57.28-62.68,57.28h0c-34.62,0-62.69-25.64-62.69-57.28V185.29" style="fill:none;stroke:#263238;stroke-miterlimit:10;stroke-width:5px"></path><rect x="131.69" y="59.33" width="107.79" height="258.67" rx="52.53" style="fill:#fff;stroke:#263238;stroke-miterlimit:10"></rect><path d="M234.6,104.48a2,2,0,0,1,2,2h-2Zm0-13.17v4a2,2,0,0,0,1.63-.87,2.28,2.28,0,0,0,.17-.3c-.32-.89-.66-1.76-1-2.62A2,2,0,0,0,234.6,91.31Zm4.88,35.89v-2a1.92,1.92,0,0,0-.27,1A2,2,0,0,0,239.48,127.2Zm0-13.17v-2a1.92,1.92,0,0,0-.27,1A2,2,0,0,0,239.48,114ZM234.6,132.8h2a1.89,1.89,0,0,0-.34-1.1,1.94,1.94,0,0,0-1.63-.87Zm1.63-12.07a1.89,1.89,0,0,0,.34-1.1,1.94,1.94,0,0,0-.34-1.11,2,2,0,0,0-1.63-.87v3.95A1.94,1.94,0,0,0,236.23,120.73Zm-1.63-12.3a2,2,0,0,0,2-2h-2Zm4.88,45.12v-2a1.92,1.92,0,0,0-.27,1A2,2,0,0,0,239.48,153.55Zm0-13.18v-2a2,2,0,0,0-.27,1A1.92,1.92,0,0,0,239.48,140.37Zm-4.88,18.78h2a1.94,1.94,0,0,0-.34-1.11,2,2,0,0,0-1.63-.87Zm1.63-12.07A2,2,0,0,0,234.6,144V148A1.94,1.94,0,0,0,236.23,147.08Zm-1.63-12.3a2,2,0,0,0,1.63-.87,1.94,1.94,0,0,0,.34-1.11h-2Zm4.88,45.11v-2a2,2,0,0,0-.27,1A1.92,1.92,0,0,0,239.48,179.89Zm0-13.17v-2a2,2,0,0,0-.27,1A1.92,1.92,0,0,0,239.48,166.72ZM234.6,185.5h2a2,2,0,0,0-2-2Zm1.63-12.07a1.94,1.94,0,0,0,.34-1.11,1.89,1.89,0,0,0-.34-1.1,1.94,1.94,0,0,0-1.63-.87v4A2,2,0,0,0,236.23,173.43Zm-1.63-12.3a2,2,0,0,0,1.63-.88,1.89,1.89,0,0,0,.34-1.1h-2Zm4.88,43.14a1.93,1.93,0,0,0,0,2Zm0-11.2v-2a1.92,1.92,0,0,0-.27,1A2,2,0,0,0,239.48,193.07Zm-4.88,18.77h2a1.89,1.89,0,0,0-.34-1.1,1.94,1.94,0,0,0-1.63-.87Zm1.63-14.28a2,2,0,0,0-1.63-.87v3.95a1.94,1.94,0,0,0,1.63-.87,1.89,1.89,0,0,0,.34-1.1A1.94,1.94,0,0,0,236.23,197.56Zm-1.63-10.09a1.94,1.94,0,0,0,1.63-.87,1.91,1.91,0,0,0,.34-1.1h-2Zm4.88,43.15a1.92,1.92,0,0,0-.27,1,2,2,0,0,0,.27,1Zm0-11.21v-2a2,2,0,0,0-.27,1A1.92,1.92,0,0,0,239.48,219.41Zm-4.88,18.78h2a1.94,1.94,0,0,0-.34-1.11,2,2,0,0,0-1.63-.87Zm1.63-14.28a1.94,1.94,0,0,0-1.63-.87v4a1.94,1.94,0,0,0,1.63-.87,1.91,1.91,0,0,0,.34-1.1A1.94,1.94,0,0,0,236.23,223.91Zm-1.63-12.07v2a2,2,0,0,0,1.63-.87,1.94,1.94,0,0,0,.34-1.11ZM239.48,257a2,2,0,0,0-.27,1,1.92,1.92,0,0,0,.27,1Zm0-11.2v-2a2,2,0,0,0-.27,1A1.92,1.92,0,0,0,239.48,245.76Zm-4.88,18.78h2a1.94,1.94,0,0,0-.34-1.11,2,2,0,0,0-1.63-.87Zm1.63-14.28a1.94,1.94,0,0,0-1.63-.87v4a2,2,0,0,0,1.63-.87,1.94,1.94,0,0,0,.34-1.11A1.89,1.89,0,0,0,236.23,250.26Zm-1.63-12.07v2a2,2,0,0,0,1.63-.88,1.89,1.89,0,0,0,.34-1.1Zm1.63,38.41a2,2,0,0,0-1.63-.87v4a2,2,0,0,0,1.63-.88,1.89,1.89,0,0,0,.34-1.1A1.94,1.94,0,0,0,236.23,276.6Zm-1.63-12.06v2a1.94,1.94,0,0,0,1.63-.87,1.91,1.91,0,0,0,.34-1.1ZM221.42,78.13a2,2,0,0,0-2,2h4A2,2,0,0,0,221.42,78.13Zm-4.61-4.61a2,2,0,1,0-2,2A2,2,0,0,0,216.81,73.52Zm-8.56,6.59h2a2,2,0,0,0-.58-1.4,2,2,0,0,0-1.4-.58Zm1.4-11.78a2,2,0,0,0,0-2.79,2,2,0,0,0-1.4-.58v4A2,2,0,0,0,209.65,68.33Zm23,38.13h2v-2a1.94,1.94,0,0,0-1.11.34A2,2,0,0,0,232.62,106.46Zm-9.22,0a2,2,0,1,0-4,0Zm10.09-14.82a2,2,0,0,0,0,3.28,2,2,0,0,0,1.11.34v-4A2,2,0,0,0,233.49,91.64Zm-12.07,3.62a2,2,0,1,0-2-2A2,2,0,0,0,221.42,95.26Zm-6.58,6.58a2,2,0,1,0-2-2A2,2,0,0,0,214.84,101.84Zm13.17,0a2,2,0,1,0-2-2A2,2,0,0,0,228,101.84ZM214.84,88.67a2,2,0,1,0-2-2A2,2,0,0,0,214.84,88.67Zm11.19-2a2,2,0,1,0,2-2A2,2,0,0,0,226,86.7Zm-17.78,19.76h2a2,2,0,0,0-.58-1.4,2,2,0,0,0-1.4-.58Zm1.4-11.78a2,2,0,0,0-1.4-3.37v4A2,2,0,0,0,209.65,94.68Zm11.77-12.59a2,2,0,0,0,2-2h-4A2,2,0,0,0,221.42,82.09Zm-13.17,0a2,2,0,0,0,2-2h-2Zm24.37,50.71h2v-2a2,2,0,0,0-2,2Zm-9.22,0a2,2,0,0,0-4,0Zm10.09-11.53a2,2,0,0,0,1.11.33v-3.95a2,2,0,0,0-1.11.34,2,2,0,0,0,0,3.28Zm-12.07.33a2,2,0,1,0-2-2A2,2,0,0,0,221.42,121.6Zm-6.58,6.59a2,2,0,1,0-2-2A2,2,0,0,0,214.84,128.19Zm13.17,0a2,2,0,1,0-2-2A2,2,0,0,0,228,128.19ZM214.84,115a2,2,0,1,0-2-2A2,2,0,0,0,214.84,115ZM228,115a2,2,0,1,0-2-2A2,2,0,0,0,228,115ZM208.25,132.8h2a2,2,0,0,0-.58-1.4,2,2,0,0,0-1.4-.57Zm1.4-11.77a2,2,0,0,0,0-2.8,2,2,0,0,0-1.4-.58v3.95A2,2,0,0,0,209.65,121Zm24.95-14.57h-2a2,2,0,0,0,.87,1.63,1.94,1.94,0,0,0,1.11.34Zm-13.18,2a2,2,0,0,0,2-2h-4A2,2,0,0,0,221.42,108.43Zm-13.17,0a2,2,0,0,0,2-2h-2Zm24.37,50.72h2v-2a2,2,0,0,0-1.11.34A2,2,0,0,0,232.62,159.15Zm-9.22,0a2,2,0,1,0-4,0Zm10.09-11.54a1.94,1.94,0,0,0,1.11.34V144a1.94,1.94,0,0,0-1.11.34,2,2,0,0,0,0,3.27Zm-12.07.34a2,2,0,1,0-2-2A2,2,0,0,0,221.42,148Zm-6.58,6.59a2,2,0,1,0-2-2A2,2,0,0,0,214.84,154.54Zm13.17,0a2,2,0,1,0-2-2A2,2,0,0,0,228,154.54Zm-13.17-13.18a2,2,0,1,0-2-2A2,2,0,0,0,214.84,141.36Zm13.17,0a2,2,0,1,0-2-2A2,2,0,0,0,228,141.36Zm-19.76,17.79h2a2,2,0,0,0-.58-1.4,2,2,0,0,0-1.4-.58Zm1.4-11.78a2,2,0,0,0,.58-1.39,2,2,0,0,0-.58-1.4,2,2,0,0,0-1.4-.58V148A2,2,0,0,0,209.65,147.37ZM234.6,132.8h-2a2,2,0,0,0,.87,1.64,2,2,0,0,0,1.11.34Zm-13.18,2a2,2,0,0,0,2-2h-4A2,2,0,0,0,221.42,134.78Zm-13.17,0a2,2,0,0,0,1.4-.58,2,2,0,0,0,.58-1.4h-2Zm24.37,50.72h2v-2a1.94,1.94,0,0,0-1.11.34A2,2,0,0,0,232.62,185.5Zm-9.22,0a2,2,0,1,0-4,0ZM233.49,174a2,2,0,0,0,1.11.34v-4a2,2,0,0,0-2,2A2,2,0,0,0,233.49,174Zm-12.07.34a2,2,0,1,0-2-2A2,2,0,0,0,221.42,174.3Zm-6.58,6.58a2,2,0,1,0-2-2A2,2,0,0,0,214.84,180.88Zm13.17,0a2,2,0,1,0-2-2A2,2,0,0,0,228,180.88Zm-13.17-13.17a2,2,0,1,0-2-2A2,2,0,0,0,214.84,167.71Zm13.17,0a2,2,0,1,0-2-2A2,2,0,0,0,228,167.71ZM208.25,185.5h2a2,2,0,0,0-.58-1.4,2,2,0,0,0-1.4-.58Zm1.4-11.78a2,2,0,0,0-1.4-3.37v4A2,2,0,0,0,209.65,173.72Zm24.95-14.57h-2a2,2,0,0,0,.87,1.64,2,2,0,0,0,1.11.34Zm-13.18,2a2,2,0,0,0,2-2h-4A2,2,0,0,0,221.42,161.13Zm-13.17,0a2,2,0,0,0,2-2h-2Zm26.35,48.74a2,2,0,0,0-2,2h2Zm-13.18,0a2,2,0,0,0-2,2h4A2,2,0,0,0,221.42,209.87ZM233.49,197a2,2,0,0,0,1.11,3.61v-3.95A2,2,0,0,0,233.49,197Zm-12.07-.34a2,2,0,1,0,2,2A2,2,0,0,0,221.42,196.69Zm-6.58,6.59a2,2,0,1,0,2,2A2,2,0,0,0,214.84,203.28Zm13.17,0a2,2,0,1,0,2,2A2,2,0,0,0,228,203.28Zm-13.17-13.17a2,2,0,1,0,2,2A2,2,0,0,0,214.84,190.11Zm13.17,0a2,2,0,1,0,2,2A2,2,0,0,0,228,190.11Zm-19.76,21.73h2a2,2,0,0,0-.58-1.4,2,2,0,0,0-1.4-.57Zm1.4-14.57a2,2,0,0,0-1.4-.58v3.95a2,2,0,0,0,1.4-.57,2,2,0,0,0,0-2.8ZM234.6,185.5h-2a2,2,0,0,0,.87,1.63,1.94,1.94,0,0,0,1.11.34Zm-13.18,2a2,2,0,0,0,2-2h-4A2,2,0,0,0,221.42,187.47Zm-13.17,0a2,2,0,0,0,2-2h-2Zm26.35,48.74a2,2,0,0,0-1.11.34,2,2,0,0,0-.87,1.64h2Zm-13.18,0a2,2,0,0,0-2,2h4A2,2,0,0,0,221.42,236.21Zm12.07-12.83a2,2,0,0,0,0,3.27,1.94,1.94,0,0,0,1.11.34v-4A1.94,1.94,0,0,0,233.49,223.38ZM221.42,223a2,2,0,1,0,2,2A2,2,0,0,0,221.42,223Zm-6.58,6.59a2,2,0,1,0,2,2A2,2,0,0,0,214.84,229.63Zm13.17,0a2,2,0,1,0,2,2A2,2,0,0,0,228,229.63Zm-13.17-13.18a2,2,0,1,0,2,2A2,2,0,0,0,214.84,216.45Zm13.17,0a2,2,0,1,0,2,2A2,2,0,0,0,228,216.45Zm-19.76,21.74h2a2,2,0,0,0-.58-1.4,2,2,0,0,0-1.4-.58Zm1.4-14.57a2,2,0,0,0-1.4-.58v4a2,2,0,0,0,2-2A2,2,0,0,0,209.65,223.62Zm24.95-11.78h-2a2,2,0,0,0,.87,1.64,2,2,0,0,0,1.11.34Zm-15.15,0a2,2,0,1,0,4,0Zm-11.2,0v2a2,2,0,0,0,1.4-.58,2,2,0,0,0,.58-1.4Zm26.35,50.72a1.94,1.94,0,0,0-1.11.34,2,2,0,0,0-.87,1.64h2Zm-13.18,0a2,2,0,0,0-2,2h4A2,2,0,0,0,221.42,262.56Zm12.07-12.84a2,2,0,0,0,0,3.28,2,2,0,0,0,1.11.34v-4A2,2,0,0,0,233.49,249.72Zm-12.07-.33a2,2,0,1,0,2,2A2,2,0,0,0,221.42,249.39ZM214.84,256a2,2,0,1,0,2,2A2,2,0,0,0,214.84,256ZM228,256a2,2,0,1,0,2,2A2,2,0,0,0,228,256ZM214.84,242.8a2,2,0,1,0,2,2A2,2,0,0,0,214.84,242.8Zm13.17,0a2,2,0,1,0,2,2A2,2,0,0,0,228,242.8Zm-19.76,21.74h2a2,2,0,0,0-.58-1.4,2,2,0,0,0-1.4-.58Zm1.4-14.58a2,2,0,0,0-1.4-.57v4a2,2,0,0,0,1.4-.58,2,2,0,0,0,0-2.8Zm24.95-11.77h-2a2,2,0,0,0,.87,1.64,2,2,0,0,0,1.11.34Zm-15.15,0a2,2,0,1,0,4,0Zm-11.2,0v2a2,2,0,0,0,2-2Zm24.37,52.69h.32c.34-.6.65-1.22,1-1.84a2,2,0,0,0-.42.2A2,2,0,0,0,232.62,290.88Zm-11.2-2a2,2,0,0,0-2,2h4A2,2,0,0,0,221.42,288.91Zm12.07-12.84a2,2,0,0,0,0,3.28,2,2,0,0,0,1.11.34v-4A2,2,0,0,0,233.49,276.07Zm-12.07-.34a2,2,0,1,0,2,2A2,2,0,0,0,221.42,275.73Zm-6.58,6.59a2,2,0,1,0,2,2A2,2,0,0,0,214.84,282.32Zm13.17,0a2,2,0,1,0,2,2A2,2,0,0,0,228,282.32Zm-13.17-13.17a2,2,0,1,0,2,2A2,2,0,0,0,214.84,269.15Zm13.17,0a2,2,0,1,0,2,2A2,2,0,0,0,228,269.15Zm-19.76,21.73h2a2,2,0,0,0-2-2Zm1.4-14.57a2,2,0,0,0-1.4-.58v4a2,2,0,0,0,1.4-3.38Zm24.95-11.77h-2a2,2,0,0,0,.87,1.63,1.94,1.94,0,0,0,1.11.34Zm-15.15,0a2,2,0,0,0,4,0Zm-11.2,0v2a2,2,0,0,0,2-2Zm13.17,37.54a2,2,0,0,0-.84,3.76q1.39-1.17,2.7-2.43A2,2,0,0,0,221.42,302.08Zm-8.56,8.56a1.93,1.93,0,0,0,.07.49c1.09-.62,2.16-1.27,3.21-2a2,2,0,0,0-3.28,1.48Zm0-13.17a2,2,0,1,0,2-2A2,2,0,0,0,212.86,297.47Zm15.15-2a2,2,0,0,0-.83,3.77c.82-1,1.61-2,2.36-3A2,2,0,0,0,228,295.49Zm-18.36,7.17a2,2,0,0,0-1.4-.58V306a2,2,0,0,0,2-2A2,2,0,0,0,209.65,302.66Zm23-11.32c.08-.16.18-.3.26-.46h-.32A1.76,1.76,0,0,0,232.68,291.34Zm-11.26,1.52a2,2,0,0,0,2-2h-4A2,2,0,0,0,221.42,292.86Zm-13.17-2v2a2,2,0,0,0,1.4-.58,2,2,0,0,0,.58-1.4Zm-2-210.77h2v-2a2,2,0,0,0-2,2Zm-9.22,0a2,2,0,1,0-4,0Zm10.1-11.54a1.89,1.89,0,0,0,1.1.34V65a1.89,1.89,0,0,0-1.1.34,2,2,0,0,0,0,3.27Zm-12.07.34a2,2,0,1,0-2-2A2,2,0,0,0,195.08,68.91Zm-4.61,4.61a2,2,0,1,0-2,2A2,2,0,0,0,190.47,73.52Zm13.17,0a2,2,0,1,0-2,2A2,2,0,0,0,203.64,73.52ZM186.8,59.33a2,2,0,1,0,3.67,1,2,2,0,0,0-.23-.91c-1.08-.06-2.17-.11-3.26-.11Zm14.86,3a2,2,0,0,0,1.31-.5c-1.05-.33-2.11-.64-3.19-.91A2,2,0,0,0,201.66,62.32ZM181.9,80.11h2a2,2,0,0,0-2-2Zm1.4-11.78A2,2,0,0,0,181.9,65v4A2,2,0,0,0,183.3,68.33Zm23,38.13h2v-2a1.89,1.89,0,0,0-1.1.34A2,2,0,0,0,206.27,106.46Zm-9.22,0a2,2,0,1,0-4,0Zm10.1-11.54a2,2,0,0,0,1.1.34v-4a2,2,0,0,0-1.1.33,2,2,0,0,0,0,3.28Zm-12.07.34a2,2,0,1,0-2-2A2,2,0,0,0,195.08,95.26Zm-6.59,6.58a2,2,0,1,0-2-2A2,2,0,0,0,188.49,101.84Zm13.17,0a2,2,0,1,0-2-2A2,2,0,0,0,201.66,101.84ZM188.49,88.67a2,2,0,1,0-2-2A2,2,0,0,0,188.49,88.67Zm13.17,0a2,2,0,1,0-2-2A2,2,0,0,0,201.66,88.67ZM181.9,106.46h2a2,2,0,0,0-2-2Zm1.4-11.78a2,2,0,0,0,0-2.8,2,2,0,0,0-1.4-.57v4A2,2,0,0,0,183.3,94.68Zm24.95-14.57h-2a2,2,0,0,0,.88,1.64,2,2,0,0,0,1.1.34Zm-13.17,2a2,2,0,0,0,2-2h-4A2,2,0,0,0,195.08,82.09Zm-13.18,0a2,2,0,0,0,1.4-.58,2,2,0,0,0,.58-1.4h-2Zm24.37,50.71h2v-2a2,2,0,0,0-1.1.33A2,2,0,0,0,206.27,132.8Zm-9.22,0a2,2,0,0,0-4,0Zm10.1-11.53a2,2,0,0,0,1.1.33v-3.95a2,2,0,0,0-2,2A2,2,0,0,0,207.15,121.27Zm-12.07.33a2,2,0,1,0-2-2A2,2,0,0,0,195.08,121.6Zm-6.59,6.59a2,2,0,1,0-2-2A2,2,0,0,0,188.49,128.19Zm13.17,0a2,2,0,1,0-2-2A2,2,0,0,0,201.66,128.19ZM188.49,115a2,2,0,1,0-2-2A2,2,0,0,0,188.49,115Zm13.17,0a2,2,0,1,0-2-2A2,2,0,0,0,201.66,115ZM181.9,132.8h2a2,2,0,0,0-2-2ZM183.3,121a2,2,0,0,0-1.4-3.38v3.95A2,2,0,0,0,183.3,121Zm24.95-14.57h-2a2,2,0,0,0,.88,1.63,1.89,1.89,0,0,0,1.1.34Zm-13.17,2a2,2,0,0,0,2-2h-4A2,2,0,0,0,195.08,108.43Zm-13.18,0a2,2,0,0,0,1.4-.58,1.94,1.94,0,0,0,.58-1.39h-2Zm24.37,50.72h2v-2a2,2,0,0,0-2,2Zm-9.22,0a2,2,0,1,0-4,0Zm10.1-11.54a1.89,1.89,0,0,0,1.1.34V144a1.89,1.89,0,0,0-1.1.34,2,2,0,0,0,0,3.27Zm-12.07.34a2,2,0,1,0-2-2A2,2,0,0,0,195.08,148Zm-6.59,6.59a2,2,0,1,0-2-2A2,2,0,0,0,188.49,154.54Zm13.17,0a2,2,0,1,0-2-2A2,2,0,0,0,201.66,154.54Zm-13.17-13.18a2,2,0,1,0-2-2A2,2,0,0,0,188.49,141.36Zm13.17,0a2,2,0,1,0-2-2A2,2,0,0,0,201.66,141.36ZM181.9,159.15h2a2,2,0,0,0-2-2Zm1.4-11.78a1.94,1.94,0,0,0,.58-1.39,2,2,0,0,0-2-2V148A2,2,0,0,0,183.3,147.37Zm24.95-14.57h-2a2,2,0,0,0,2,2Zm-13.17,2a2,2,0,0,0,2-2h-4A2,2,0,0,0,195.08,134.78Zm-13.18,0a2,2,0,0,0,2-2h-2Zm24.37,50.72h2v-2a1.89,1.89,0,0,0-1.1.34A2,2,0,0,0,206.27,185.5Zm-9.22,0a2,2,0,1,0-4,0ZM207.15,174a2,2,0,0,0,1.1.34v-4a2,2,0,0,0-1.1.33,2,2,0,0,0,0,3.28Zm-12.07.34a2,2,0,1,0-2-2A2,2,0,0,0,195.08,174.3Zm-6.59,6.58a2,2,0,1,0-2-2A2,2,0,0,0,188.49,180.88Zm13.17,0a2,2,0,1,0-2-2A2,2,0,0,0,201.66,180.88Zm-13.17-13.17a2,2,0,1,0-2-2A2,2,0,0,0,188.49,167.71Zm13.17,0a2,2,0,1,0-2-2A2,2,0,0,0,201.66,167.71ZM181.9,185.5h2a2,2,0,0,0-2-2Zm1.4-11.78a2,2,0,0,0,0-2.8,2,2,0,0,0-1.4-.57v4A2,2,0,0,0,183.3,173.72Zm24.95-14.57h-2a2,2,0,0,0,.88,1.64,2,2,0,0,0,1.1.34Zm-13.17,2a2,2,0,0,0,2-2h-4A2,2,0,0,0,195.08,161.13Zm-13.18,0a2,2,0,0,0,1.4-.58,2,2,0,0,0,.58-1.4h-2Zm26.35,48.74a2,2,0,0,0-1.1.33,2,2,0,0,0-.88,1.64h2Zm-13.17,0a2,2,0,0,0-2,2h4A2,2,0,0,0,195.08,209.87ZM207.15,197a2,2,0,0,0,0,3.28,2,2,0,0,0,1.1.33v-3.95A2,2,0,0,0,207.15,197Zm-12.07,3.61a2,2,0,1,0-2-2A2,2,0,0,0,195.08,200.64Zm-6.59,2.64a2,2,0,1,0,2,2A2,2,0,0,0,188.49,203.28Zm13.17,0a2,2,0,1,0,2,2A2,2,0,0,0,201.66,203.28Zm-13.17-13.17a2,2,0,1,0,2,2A2,2,0,0,0,188.49,190.11Zm13.17,0a2,2,0,1,0,2,2A2,2,0,0,0,201.66,190.11ZM181.9,211.84h2a2,2,0,0,0-2-2Zm1.4-14.57a2,2,0,0,0-1.4-.58v3.95a2,2,0,0,0,2-2A2,2,0,0,0,183.3,197.27Zm24.95-11.77h-2a2,2,0,0,0,.88,1.63,1.89,1.89,0,0,0,1.1.34Zm-13.17,2a2,2,0,0,0,2-2h-4A2,2,0,0,0,195.08,187.47Zm-13.18-2v2a2,2,0,0,0,1.4-.58,1.94,1.94,0,0,0,.58-1.39Zm26.35,50.71a2,2,0,0,0-1.1.34,2,2,0,0,0-.88,1.64h2Zm-13.17,0a2,2,0,0,0-2,2h4A2,2,0,0,0,195.08,236.21Zm12.07-12.83a2,2,0,0,0,0,3.27,1.89,1.89,0,0,0,1.1.34v-4A1.89,1.89,0,0,0,207.15,223.38ZM195.08,227a2,2,0,1,0-2-2A2,2,0,0,0,195.08,227Zm-6.59,2.64a2,2,0,1,0,2,2A2,2,0,0,0,188.49,229.63Zm13.17,0a2,2,0,1,0,2,2A2,2,0,0,0,201.66,229.63Zm-13.17-13.18a2,2,0,1,0,2,2A2,2,0,0,0,188.49,216.45Zm13.17,0a2,2,0,1,0,2,2A2,2,0,0,0,201.66,216.45ZM181.9,238.19h2a2,2,0,0,0-2-2Zm1.4-14.57a2,2,0,0,0-1.4-.58v4a2,2,0,0,0,1.4-.58,1.94,1.94,0,0,0,.58-1.39A2,2,0,0,0,183.3,223.62Zm24.95-11.78h-2a2,2,0,0,0,2,2Zm-13.17,2a2,2,0,0,0,2-2h-4A2,2,0,0,0,195.08,213.82Zm-13.18-2v2a2,2,0,0,0,2-2Zm26.35,50.72a1.89,1.89,0,0,0-1.1.34,2,2,0,0,0-.88,1.64h2Zm-13.17,0a2,2,0,0,0-2,2h4A2,2,0,0,0,195.08,262.56Zm12.07-12.84a2,2,0,0,0,0,3.28,2,2,0,0,0,1.1.34v-4A2,2,0,0,0,207.15,249.72Zm-12.07,3.62a2,2,0,1,0-2-2A2,2,0,0,0,195.08,253.34ZM188.49,256a2,2,0,1,0,2,2A2,2,0,0,0,188.49,256Zm13.17,0a2,2,0,1,0,2,2A2,2,0,0,0,201.66,256ZM188.49,242.8a2,2,0,1,0,2,2A2,2,0,0,0,188.49,242.8Zm13.17,0a2,2,0,1,0,2,2A2,2,0,0,0,201.66,242.8ZM181.9,264.54h2a2,2,0,0,0-2-2ZM183.3,250a2,2,0,0,0-1.4-.57v4a2,2,0,0,0,1.4-3.38Zm24.95-11.77h-2a2,2,0,0,0,.88,1.64,2,2,0,0,0,1.1.34Zm-13.17,2a2,2,0,0,0,2-2h-4A2,2,0,0,0,195.08,240.17Zm-13.18-2v2a2,2,0,0,0,1.4-.58,2,2,0,0,0,.58-1.4Zm26.35,50.72a2,2,0,0,0-1.1.33,2,2,0,0,0-.88,1.64h2Zm-13.17,0a2,2,0,0,0-2,2h4A2,2,0,0,0,195.08,288.91Zm12.07-12.84a2,2,0,0,0,0,3.28,2,2,0,0,0,1.1.34v-4A2,2,0,0,0,207.15,276.07Zm-12.07,3.62a2,2,0,1,0-2-2A2,2,0,0,0,195.08,279.69Zm-6.59,2.63a2,2,0,1,0,2,2A2,2,0,0,0,188.49,282.32Zm13.17,0a2,2,0,1,0,2,2A2,2,0,0,0,201.66,282.32Zm-13.17-13.17a2,2,0,1,0,2,2A2,2,0,0,0,188.49,269.15Zm13.17,0a2,2,0,1,0,2,2A2,2,0,0,0,201.66,269.15ZM181.9,288.91v2h2a1.94,1.94,0,0,0-.58-1.39A2,2,0,0,0,181.9,288.91Zm1.4-12.6a2,2,0,0,0-1.4-.58v4a2,2,0,0,0,1.4-.58,2,2,0,0,0,0-2.8Zm24.95-11.77h-2a2,2,0,0,0,.88,1.63,1.89,1.89,0,0,0,1.1.34Zm-13.17,2a2,2,0,0,0,2-2h-4A2,2,0,0,0,195.08,266.51Zm-13.18-2v2a2,2,0,0,0,1.4-.58,1.94,1.94,0,0,0,.58-1.39ZM197,317a2,2,0,0,0-3.93.2h2.83Zm10.12-14.61a2,2,0,0,0,0,3.27,1.89,1.89,0,0,0,1.1.34v-3.95A1.89,1.89,0,0,0,207.15,302.42ZM195.08,306a2,2,0,1,0-2-2A2,2,0,0,0,195.08,306Zm-4.61,4.61a2,2,0,1,0-2,2A2,2,0,0,0,190.47,310.64Zm11.19-2a2,2,0,1,0,2,2A2,2,0,0,0,201.66,308.67Zm-13.17-13.18a2,2,0,1,0,2,2A2,2,0,0,0,188.49,295.49Zm13.17,0a2,2,0,1,0,2,2A2,2,0,0,0,201.66,295.49ZM181.9,315.25v2h2a2,2,0,0,0-2-2Zm1.4-9.8a1.94,1.94,0,0,0,.58-1.39,2,2,0,0,0-2-2V306A2,2,0,0,0,183.3,305.45Zm24.95-14.57h-2a2,2,0,0,0,2,2Zm-13.17,2a2,2,0,0,0,2-2h-4A2,2,0,0,0,195.08,292.86Zm-13.18,0a2,2,0,0,0,2-2h-2Zm14,24.37H193.1a2.58,2.58,0,0,0,0,.4C194.08,317.52,195,317.39,195.93,317.23Zm-14,.72c.61,0,1.22,0,1.83,0a2.1,2.1,0,0,0,.15-.76h-2Zm-2-237.84h2v-2a2,2,0,0,0-2,2Zm-9.22,0a2,2,0,0,0-4,0ZM180.8,68.57a1.89,1.89,0,0,0,1.1.34V65a1.89,1.89,0,0,0-1.1.34,2,2,0,0,0,0,3.27Zm-12.07.34a2,2,0,1,0-2-2A2,2,0,0,0,168.73,68.91Zm-4.61,4.61a2,2,0,1,0-2,2A2,2,0,0,0,164.12,73.52Zm13.17,0a2,2,0,1,0-2,2A2,2,0,0,0,177.29,73.52Zm-2-11.2a2,2,0,0,0,2-2,1.91,1.91,0,0,0-.08-.54c-1.3.17-2.59.38-3.86.65A2,2,0,0,0,175.32,62.32ZM155.56,80.11h2a2,2,0,0,0-.58-1.4,1.94,1.94,0,0,0-1.39-.58Zm0-11.2a2,2,0,0,0,2-2,1.55,1.55,0,0,0,0-.31c-.66.39-1.3.79-1.94,1.21Zm24.37,37.55h2v-2a1.89,1.89,0,0,0-1.1.34A2,2,0,0,0,179.93,106.46Zm-9.22,0a2,2,0,0,0-4,0ZM180.8,94.92a2,2,0,0,0,1.1.34v-4a2,2,0,0,0-1.1,3.61Zm-12.07.34a2,2,0,1,0-2-2A2,2,0,0,0,168.73,95.26Zm-6.59,6.58a2,2,0,1,0-2-2A2,2,0,0,0,162.14,101.84Zm13.18,0a2,2,0,1,0-2-2A2,2,0,0,0,175.32,101.84ZM162.14,88.67a2,2,0,1,0-2-2A2,2,0,0,0,162.14,88.67Zm13.18,0a2,2,0,1,0-2-2A2,2,0,0,0,175.32,88.67Zm-19.76,17.79h2a2,2,0,0,0-.58-1.4,1.94,1.94,0,0,0-1.39-.58ZM157,94.68a2,2,0,0,0-1.39-3.37v4A1.94,1.94,0,0,0,157,94.68Zm25-14.57h-2a2,2,0,0,0,2,2Zm-13.17,2a2,2,0,0,0,2-2h-4A2,2,0,0,0,168.73,82.09Zm-13.17,0a2,2,0,0,0,2-2h-2Zm24.37,50.71h2v-2a2,2,0,0,0-2,2Zm-9.22,0a2,2,0,0,0-4,0Zm10.09-11.53a2,2,0,0,0,1.1.33v-3.95a2,2,0,0,0-1.1,3.62Zm-12.07.33a2,2,0,1,0-2-2A2,2,0,0,0,168.73,121.6Zm-6.59,6.59a2,2,0,1,0-2-2A2,2,0,0,0,162.14,128.19Zm13.18,0a2,2,0,1,0-2-2A2,2,0,0,0,175.32,128.19ZM162.14,115a2,2,0,1,0-2-2A2,2,0,0,0,162.14,115Zm13.18,0a2,2,0,1,0-2-2A2,2,0,0,0,175.32,115ZM155.56,132.8h2a2,2,0,0,0-2-2ZM157,121a2,2,0,0,0,0-2.8,1.94,1.94,0,0,0-1.39-.58v3.95A2,2,0,0,0,157,121Zm25-14.57h-2a1.94,1.94,0,0,0,.87,1.63,1.89,1.89,0,0,0,1.1.34Zm-13.17,2a2,2,0,0,0,2-2h-4A2,2,0,0,0,168.73,108.43Zm-13.17,0a2,2,0,0,0,2-2h-2Zm24.37,50.72h2v-2a2,2,0,0,0-2,2Zm-11.2-2a2,2,0,0,0-2,2h4A2,2,0,0,0,168.73,157.17Zm12.07-9.56a1.89,1.89,0,0,0,1.1.34V144a1.89,1.89,0,0,0-1.1.34,2,2,0,0,0,0,3.27ZM168.73,144a2,2,0,1,0,2,2A2,2,0,0,0,168.73,144Zm-6.59,10.54a2,2,0,1,0-2-2A2,2,0,0,0,162.14,154.54Zm13.18,0a2,2,0,1,0-2-2A2,2,0,0,0,175.32,154.54Zm-15.15-15.15a2,2,0,1,0,2-2A2,2,0,0,0,160.17,139.39Zm15.15,2a2,2,0,1,0-2-2A2,2,0,0,0,175.32,141.36Zm-19.76,17.79h2a2,2,0,0,0-.58-1.4,1.94,1.94,0,0,0-1.39-.58ZM157,147.37a1.94,1.94,0,0,0,.58-1.39,2,2,0,0,0-.58-1.4,1.94,1.94,0,0,0-1.39-.58V148A1.94,1.94,0,0,0,157,147.37Zm25-14.57h-2a2,2,0,0,0,2,2Zm-13.17,2a2,2,0,0,0,2-2h-4A2,2,0,0,0,168.73,134.78Zm-13.17,0a1.94,1.94,0,0,0,1.39-.58,2,2,0,0,0,.58-1.4h-2Zm26.34,48.74a1.89,1.89,0,0,0-1.1.34,2,2,0,0,0-.87,1.64h2Zm-11.19,2a2,2,0,0,0-4,0ZM180.8,174a2,2,0,0,0,1.1.34v-4a2,2,0,0,0-1.1,3.61Zm-12.07.34a2,2,0,1,0-2-2A2,2,0,0,0,168.73,174.3Zm-6.59,6.58a2,2,0,1,0-2-2A2,2,0,0,0,162.14,180.88Zm13.18,0a2,2,0,1,0-2-2A2,2,0,0,0,175.32,180.88Zm-13.18-13.17a2,2,0,1,0-2-2A2,2,0,0,0,162.14,167.71Zm11.2-2a2,2,0,1,0,2-2A2,2,0,0,0,173.34,165.74ZM155.56,185.5h2a2,2,0,0,0-.58-1.4,1.94,1.94,0,0,0-1.39-.58ZM157,173.72a2,2,0,0,0-1.39-3.37v4A1.94,1.94,0,0,0,157,173.72Zm25-14.57h-2a2,2,0,0,0,2,2Zm-13.17,2a2,2,0,0,0,2-2h-4A2,2,0,0,0,168.73,161.13Zm-13.17,0a2,2,0,0,0,2-2h-2Zm26.34,48.74a2,2,0,0,0-2,2h2Zm-13.17,0a2,2,0,0,0-2,2h4A2,2,0,0,0,168.73,209.87ZM180.8,197a2,2,0,0,0,1.1,3.61v-3.95A2,2,0,0,0,180.8,197Zm-12.07,3.61a2,2,0,1,0-2-2A2,2,0,0,0,168.73,200.64Zm-6.59,6.59a2,2,0,1,0-2-2A2,2,0,0,0,162.14,207.23Zm13.18,0a2,2,0,1,0-2-2A2,2,0,0,0,175.32,207.23Zm-13.18-13.17a2,2,0,1,0-2-2A2,2,0,0,0,162.14,194.06Zm13.18,0a2,2,0,1,0-2-2A2,2,0,0,0,175.32,194.06Zm-19.76,17.78h2a2,2,0,0,0-2-2ZM157,200.07a2,2,0,0,0,0-2.8,1.94,1.94,0,0,0-1.39-.58v3.95A2,2,0,0,0,157,200.07Zm25-14.57h-2a1.94,1.94,0,0,0,.87,1.63,1.89,1.89,0,0,0,1.1.34Zm-13.17,2a2,2,0,0,0,2-2h-4A2,2,0,0,0,168.73,187.47Zm-13.17,0a2,2,0,0,0,2-2h-2Zm26.34,48.74a2,2,0,0,0-2,2h2Zm-13.17,0a2,2,0,0,0-2,2h4A2,2,0,0,0,168.73,236.21Zm12.07-12.83a2,2,0,0,0,0,3.27,1.89,1.89,0,0,0,1.1.34v-4A1.89,1.89,0,0,0,180.8,223.38ZM168.73,223a2,2,0,1,0,2,2A2,2,0,0,0,168.73,223Zm-6.59,6.59a2,2,0,1,0,2,2A2,2,0,0,0,162.14,229.63Zm13.18,0a2,2,0,1,0,2,2A2,2,0,0,0,175.32,229.63Zm-13.18-13.18a2,2,0,1,0,2,2A2,2,0,0,0,162.14,216.45Zm13.18,0a2,2,0,1,0,2,2A2,2,0,0,0,175.32,216.45Zm-19.76,21.74h2a2,2,0,0,0-.58-1.4,1.94,1.94,0,0,0-1.39-.58ZM157,223.62a1.94,1.94,0,0,0-1.39-.58v4a2,2,0,0,0,2-2A2,2,0,0,0,157,223.62Zm25-11.78h-2a2,2,0,0,0,2,2Zm-15.15,0a2,2,0,0,0,4,0Zm-11.19,0v2a1.94,1.94,0,0,0,1.39-.58,2,2,0,0,0,.58-1.4Zm26.34,50.72a1.89,1.89,0,0,0-1.1.34,2,2,0,0,0-.87,1.64h2Zm-13.17,0a2,2,0,0,0-2,2h4A2,2,0,0,0,168.73,262.56Zm12.07-12.84a2,2,0,0,0,1.1,3.62v-4A2,2,0,0,0,180.8,249.72Zm-12.07-.33a2,2,0,1,0,2,2A2,2,0,0,0,168.73,249.39ZM162.14,256a2,2,0,1,0,2,2A2,2,0,0,0,162.14,256Zm13.18,0a2,2,0,1,0,2,2A2,2,0,0,0,175.32,256ZM162.14,242.8a2,2,0,1,0,2,2A2,2,0,0,0,162.14,242.8Zm13.18,0a2,2,0,1,0,2,2A2,2,0,0,0,175.32,242.8Zm-19.76,21.74h2a2,2,0,0,0-.58-1.4,1.94,1.94,0,0,0-1.39-.58ZM157,250a2,2,0,0,0-1.39-.57v4a1.94,1.94,0,0,0,1.39-.58,2,2,0,0,0,0-2.8Zm25-11.77h-2a2,2,0,0,0,2,2Zm-15.15,0a2,2,0,0,0,4,0Zm-11.19,0v2a2,2,0,0,0,2-2Zm26.34,50.72a2,2,0,0,0-2,2h2Zm-13.17,0a2,2,0,0,0-2,2h4A2,2,0,0,0,168.73,288.91Zm12.07-12.84a2,2,0,0,0,1.1,3.62v-4A2,2,0,0,0,180.8,276.07Zm-12.07-.34a2,2,0,1,0,2,2A2,2,0,0,0,168.73,275.73Zm-6.59,6.59a2,2,0,1,0,2,2A2,2,0,0,0,162.14,282.32Zm13.18,0a2,2,0,1,0,2,2A2,2,0,0,0,175.32,282.32Zm-13.18-13.17a2,2,0,1,0,2,2A2,2,0,0,0,162.14,269.15Zm13.18,0a2,2,0,1,0,2,2A2,2,0,0,0,175.32,269.15Zm-19.76,21.73h2a2,2,0,0,0-2-2ZM157,276.31a1.94,1.94,0,0,0-1.39-.58v4a2,2,0,0,0,1.39-3.38Zm25-11.77h-2a1.94,1.94,0,0,0,.87,1.63,1.89,1.89,0,0,0,1.1.34Zm-15.15,0a2,2,0,0,0,4,0Zm-11.19,0v2a2,2,0,0,0,2-2Zm26.34,50.71a2,2,0,0,0-2,2h2Zm-13.17,0a2.16,2.16,0,0,0-.8.17c.81.27,1.63.51,2.46.74A2,2,0,0,0,168.73,315.25Zm12.07-9.56a1.89,1.89,0,0,0,1.1.34v-3.95a1.89,1.89,0,0,0-1.1.34,2,2,0,0,0,0,3.27Zm-12.07-3.61a2,2,0,1,0,2,2A2,2,0,0,0,168.73,302.08Zm-6.59,6.59a2,2,0,1,0,2,2A2,2,0,0,0,162.14,308.67Zm15.15,2a2,2,0,1,0-2,2A2,2,0,0,0,177.29,310.64Zm-15.15-15.15a2,2,0,1,0,2,2A2,2,0,0,0,162.14,295.49Zm11.2,2a2,2,0,1,0,2-2A2,2,0,0,0,173.34,297.47ZM157,302.66a1.94,1.94,0,0,0-1.39-.58V306a2,2,0,0,0,2-2A2,2,0,0,0,157,302.66Zm25-11.78h-2a2,2,0,0,0,2,2Zm-15.15,0a2,2,0,0,0,4,0Zm-11.19,0v2a1.94,1.94,0,0,0,1.39-.58,2,2,0,0,0,.58-1.4Zm24.37,26.35a1.87,1.87,0,0,0,.1.59c.62.05,1.25.1,1.87.13v-.72ZM153.58,80.11h2v-2a2,2,0,0,0-1.11.34A2,2,0,0,0,153.58,80.11Zm-11.21,0h2a2,2,0,0,0-.77-1.56C143.17,79.06,142.77,79.58,142.37,80.11Zm12.08-11.54a1.94,1.94,0,0,0,1.11.34V67.84ZM149,75.5a2,2,0,0,0,1.14-3.59c-1,.84-1.92,1.7-2.84,2.61A2,2,0,0,0,149,75.5Zm6.59,29a1.94,1.94,0,0,0-1.11.34,2,2,0,0,0-.87,1.64h2Zm-13.18,0a2,2,0,0,0-2,2h4A2,2,0,0,0,142.38,104.48Zm12.07-9.56a2,2,0,0,0,1.11.34v-4a2,2,0,0,0-2,2A2,2,0,0,0,154.45,94.92Zm-12.07-3.61a2,2,0,1,0,2,2A2,2,0,0,0,142.38,91.31Zm-4.61,8.56a2,2,0,1,0-2,2A2,2,0,0,0,137.77,99.87Zm11.2,2a2,2,0,1,0-2-2A2,2,0,0,0,149,101.84ZM147,86.7a2,2,0,1,0,2-2A2,2,0,0,0,147,86.7Zm8.56-6.59h-2a2,2,0,0,0,.87,1.64,2,2,0,0,0,1.11.34ZM141.22,81.7a2,2,0,0,0,1.16.39,2,2,0,0,0,2-2h-2C142,80.63,141.59,81.16,141.22,81.7Zm12.36,51.1h2v-2a2,2,0,0,0-2,2Zm-11.2-2a2,2,0,0,0-2,2h4A2,2,0,0,0,142.38,130.83Zm12.07-9.56a2,2,0,0,0,1.11.33v-3.95a2,2,0,0,0-1.11.34,2,2,0,0,0,0,3.28Zm-12.07.33a2,2,0,1,0-2-2A2,2,0,0,0,142.38,121.6Zm-6.58,6.59a2,2,0,1,0-2-2A2,2,0,0,0,135.8,128.19Zm13.17,0a2,2,0,1,0-2-2A2,2,0,0,0,149,128.19ZM133.82,113a2,2,0,1,0,2-2A2,2,0,0,0,133.82,113ZM149,115a2,2,0,1,0-2-2A2,2,0,0,0,149,115Zm5.48-6.93a1.94,1.94,0,0,0,1.11.34v-2h-2A2,2,0,0,0,154.45,108.09Zm-12.07.34a2,2,0,0,0,2-2h-4A2,2,0,0,0,142.38,108.43Zm11.2,50.72h2v-2a2,2,0,0,0-1.11.34A2,2,0,0,0,153.58,159.15Zm-9.22,0a2,2,0,1,0-4,0Zm10.09-11.54a1.94,1.94,0,0,0,1.11.34V144a1.94,1.94,0,0,0-1.11.34,2,2,0,0,0,0,3.27Zm-12.07.34a2,2,0,1,0-2-2A2,2,0,0,0,142.38,148Zm-6.58,6.59a2,2,0,1,0-2-2A2,2,0,0,0,135.8,154.54Zm13.17,0a2,2,0,1,0-2-2A2,2,0,0,0,149,154.54ZM135.8,141.36a2,2,0,1,0-2-2A2,2,0,0,0,135.8,141.36Zm13.17,0a2,2,0,1,0-2-2A2,2,0,0,0,149,141.36Zm6.59-8.56h-2a2,2,0,0,0,.87,1.64,2,2,0,0,0,1.11.34Zm-13.18,2a2,2,0,0,0,2-2h-4A2,2,0,0,0,142.38,134.78Zm11.2,50.72h2v-2a1.94,1.94,0,0,0-1.11.34A2,2,0,0,0,153.58,185.5Zm-9.22,0a2,2,0,1,0-4,0ZM154.45,174a2,2,0,0,0,1.11.34v-4a2,2,0,0,0-2,2A2,2,0,0,0,154.45,174Zm-12.07.34a2,2,0,1,0-2-2A2,2,0,0,0,142.38,174.3Zm-6.58,6.58a2,2,0,1,0-2-2A2,2,0,0,0,135.8,180.88Zm13.17,0a2,2,0,1,0-2-2A2,2,0,0,0,149,180.88ZM135.8,167.71a2,2,0,1,0-2-2A2,2,0,0,0,135.8,167.71Zm13.17,0a2,2,0,1,0-2-2A2,2,0,0,0,149,167.71Zm6.59-8.56h-2a2,2,0,0,0,.87,1.64,2,2,0,0,0,1.11.34Zm-13.18,2a2,2,0,0,0,2-2h-4A2,2,0,0,0,142.38,161.13Zm13.18,48.74a2,2,0,0,0-2,2h2Zm-13.18,0a2,2,0,0,0-2,2h4A2,2,0,0,0,142.38,209.87Zm12.07-9.56a2,2,0,0,0,1.11.33v-3.95a2,2,0,0,0-1.11.34,2,2,0,0,0,0,3.28Zm-12.07-3.62a2,2,0,1,0,2,2A2,2,0,0,0,142.38,196.69Zm-6.58,10.54a2,2,0,1,0-2-2A2,2,0,0,0,135.8,207.23Zm13.17,0a2,2,0,1,0-2-2A2,2,0,0,0,149,207.23Zm-15.15-15.15a2,2,0,1,0,2-2A2,2,0,0,0,133.82,192.08Zm15.15,2a2,2,0,1,0-2-2A2,2,0,0,0,149,194.06Zm6.59-8.56h-2a2,2,0,0,0,.87,1.63,1.94,1.94,0,0,0,1.11.34Zm-13.18,2a2,2,0,0,0,2-2h-4A2,2,0,0,0,142.38,187.47Zm13.18,48.74a2,2,0,0,0-1.11.34,2,2,0,0,0-.87,1.64h2Zm-13.18,0a2,2,0,0,0-2,2h4A2,2,0,0,0,142.38,236.21Zm12.07-12.83a2,2,0,0,0,0,3.27,1.94,1.94,0,0,0,1.11.34v-4A1.94,1.94,0,0,0,154.45,223.38ZM142.38,227a2,2,0,1,0-2-2A2,2,0,0,0,142.38,227Zm-6.58,2.64a2,2,0,1,0,2,2A2,2,0,0,0,135.8,229.63Zm13.17,0a2,2,0,1,0,2,2A2,2,0,0,0,149,229.63ZM135.8,216.45a2,2,0,1,0,2,2A2,2,0,0,0,135.8,216.45Zm13.17,0a2,2,0,1,0,2,2A2,2,0,0,0,149,216.45Zm6.59-4.61h-2a2,2,0,0,0,.87,1.64,2,2,0,0,0,1.11.34Zm-13.18,2a2,2,0,0,0,2-2h-4A2,2,0,0,0,142.38,213.82Zm13.18,48.74a1.94,1.94,0,0,0-1.11.34,2,2,0,0,0-.87,1.64h2Zm-13.18,0a2,2,0,0,0-2,2h4A2,2,0,0,0,142.38,262.56Zm12.07-12.84a2,2,0,0,0,0,3.28,2,2,0,0,0,1.11.34v-4A2,2,0,0,0,154.45,249.72Zm-12.07,3.62a2,2,0,1,0-2-2A2,2,0,0,0,142.38,253.34ZM135.8,256a2,2,0,1,0,2,2A2,2,0,0,0,135.8,256ZM149,256a2,2,0,1,0,2,2A2,2,0,0,0,149,256ZM135.8,242.8a2,2,0,1,0,2,2A2,2,0,0,0,135.8,242.8Zm13.17,0a2,2,0,1,0,2,2A2,2,0,0,0,149,242.8Zm6.59-4.61h-2a2,2,0,0,0,.87,1.64,2,2,0,0,0,1.11.34Zm-13.18,2a2,2,0,0,0,2-2h-4A2,2,0,0,0,142.38,240.17Zm13.18,48.74a2,2,0,0,0-2,2h2Zm-13.18,0a2,2,0,0,0-2,2h4A2,2,0,0,0,142.38,288.91Zm12.07-12.84a2,2,0,0,0,0,3.28,2,2,0,0,0,1.11.34v-4A2,2,0,0,0,154.45,276.07Zm-12.07-.34a2,2,0,1,0,2,2A2,2,0,0,0,142.38,275.73Zm-4.61,8.56a2,2,0,0,0-2-2,2,2,0,0,0-1.2.41c.42,1.2.86,2.37,1.36,3.52A2,2,0,0,0,137.77,284.29Zm11.2-2a2,2,0,1,0,2,2A2,2,0,0,0,149,282.32ZM135.8,269.15a2,2,0,1,0,2,2A2,2,0,0,0,135.8,269.15Zm13.17,0a2,2,0,1,0,2,2A2,2,0,0,0,149,269.15Zm6.59-4.61h-2a2,2,0,0,0,.87,1.63,1.94,1.94,0,0,0,1.11.34Zm-13.18,2a2,2,0,0,0,2-2h-4A2,2,0,0,0,142.38,266.51Zm12.07,35.91a2,2,0,0,0,0,3.27,1.94,1.94,0,0,0,1.11.34v-3.95A1.94,1.94,0,0,0,154.45,302.42ZM147,297.47a2,2,0,1,0,2-2A2,2,0,0,0,147,297.47Zm8.56-6.59h-2a2,2,0,0,0,.87,1.64,2,2,0,0,0,1.11.34Zm-13.18,2a2,2,0,0,0,2-2h-4A2,2,0,0,0,142.38,292.86Z" style="fill:#263238"></path><rect x="131.69" y="216.06" width="107.79" height="18.31" style="fill:#025566;stroke:#263238;stroke-miterlimit:10"></rect><rect x="131.69" y="179.44" width="107.79" height="33.98" style="fill:#025566;stroke:#263238;stroke-miterlimit:10"></rect><path d="M147.32,179.44h19.21v34H147.32Zm-10.06,34h5.49v-34h-5.49Z" style="fill:#263238;stroke:#263238;stroke-miterlimit:10"></path><path d="M131.69,223.23V265.5a52.5,52.5,0,0,0,52.5,52.5H187a52.5,52.5,0,0,0,52.5-52.5V223.23Z" style="fill:#263238;stroke:#263238;stroke-miterlimit:10"></path><rect x="95.92" y="184.66" width="19.94" height="22.79" style="fill:#fff;stroke:#263238;stroke-miterlimit:10"></rect><line x1="111.25" y1="188.22" x2="115.31" y2="188.22" style="fill:none;stroke:#263238;stroke-miterlimit:10"></line><line x1="96.34" y1="188.22" x2="108.41" y2="188.22" style="fill:none;stroke:#263238;stroke-miterlimit:10"></line><line x1="103.94" y1="193.51" x2="115.31" y2="193.51" style="fill:none;stroke:#263238;stroke-miterlimit:10"></line><line x1="96.34" y1="193.51" x2="102.22" y2="193.51" style="fill:none;stroke:#263238;stroke-miterlimit:10"></line><line x1="96.34" y1="198.79" x2="115.31" y2="198.79" style="fill:none;stroke:#263238;stroke-miterlimit:10"></line><line x1="113.89" y1="204.07" x2="115.31" y2="204.07" style="fill:none;stroke:#263238;stroke-miterlimit:10"></line><line x1="96.34" y1="204.07" x2="111.86" y2="204.07" style="fill:none;stroke:#263238;stroke-miterlimit:10"></line><rect x="254.18" y="184.66" width="19.94" height="22.79" style="fill:#fff;stroke:#263238;stroke-miterlimit:10"></rect><line x1="269.51" y1="188.22" x2="273.57" y2="188.22" style="fill:none;stroke:#263238;stroke-miterlimit:10"></line><line x1="254.6" y1="188.22" x2="266.67" y2="188.22" style="fill:none;stroke:#263238;stroke-miterlimit:10"></line><line x1="262.2" y1="193.51" x2="273.57" y2="193.51" style="fill:none;stroke:#263238;stroke-miterlimit:10"></line><line x1="254.6" y1="193.51" x2="260.48" y2="193.51" style="fill:none;stroke:#263238;stroke-miterlimit:10"></line><line x1="254.6" y1="198.79" x2="273.57" y2="198.79" style="fill:none;stroke:#263238;stroke-miterlimit:10"></line><line x1="272.15" y1="204.07" x2="273.57" y2="204.07" style="fill:none;stroke:#263238;stroke-miterlimit:10"></line><line x1="254.6" y1="204.07" x2="270.12" y2="204.07" style="fill:none;stroke:#263238;stroke-miterlimit:10"></line><rect x="175.69" y="322.08" width="19.8" height="35.39" style="fill:#fff;stroke:#263238;stroke-miterlimit:10"></rect><rect x="173.14" y="385.67" width="24.88" height="35.39" style="fill:#263238;stroke:#263238;stroke-miterlimit:10"></rect><rect x="126.27" y="411.22" width="118.63" height="10.96" style="fill:#263238;stroke:#263238;stroke-miterlimit:10"></rect><rect x="169.69" y="353.27" width="31.79" height="23.39" style="fill:#263238;stroke:#263238;stroke-miterlimit:10"></rect><polygon points="198.3 385.67 172.87 385.67 169.69 376.67 201.48 376.67 198.3 385.67" style="fill:#263238;stroke:#263238;stroke-miterlimit:10"></polygon><rect x="172.09" y="322.08" width="26.99" height="22.19" style="fill:#fff;stroke:#263238;stroke-miterlimit:10"></rect><rect x="172.09" y="338.88" width="26.99" height="5.4" style="fill:#fff;stroke:#263238;stroke-miterlimit:10"></rect></g><g id="freepik--Character--inject-246"><path d="M306.31,154s-3.58,3.76-3.76,5.55-3.75,12.52-3.93,13-.72,3.58-.72,3.58l7,2.68s3.4-4.11,5.9-5.72,6.26-4.11,6.44-5.19S309,151.36,309,151.36Z" style="fill:#fff;stroke:#263238;stroke-miterlimit:10"></path><path d="M296.29,170.5s10.91,4.83,11.45,5,.72.36.72.9-3,6.08-3,6.08-10.38-2-12-2.5a8.66,8.66,0,0,1-2.5-1.26l2.15-9.3Z" style="fill:#025566;stroke:#263238;stroke-miterlimit:10"></path><path d="M290.93,178.72s-6.26-.53-7.33,1.43-2.86,17.35-5.91,28.8-2,18.6.72,19.49,20.75,1.61,24.32,1.61,11.81-38.81,11.81-38.81-7.87,5.55-8.77,5.9l-.89.36s3-9.3,3.22-12.16-2.86-3.76-2.86-3.76Z" style="fill:#025566;stroke:#263238;stroke-miterlimit:10"></path><polygon points="281.58 190.13 289.04 198.33 298.98 190.13 303.95 199.32 305.44 195.84 301.96 207.27 296.49 201.56 287.3 208.27 279.84 198.82 281.58 190.13" style="fill:#263238;stroke:#263238;stroke-miterlimit:10"></polygon><polygon points="280.59 228.39 279.1 221.19 293.01 219.94 295 212.49 302.7 210 299.23 216.22 300.22 223.92 287.55 224.42 288.54 229.39 280.59 228.39" style="fill:#263238;stroke:#263238;stroke-miterlimit:10"></polygon><path d="M323,126.52s-10,6.36-11,9.64-1.55,6.36-3.09,8.09-6.36,2.32-6.75,3.86,2.51,6,2.51,6,2.12,7.9,2.51,10.41,2.89,6.36,4.82,6.36a50.08,50.08,0,0,0,6.94-1.16s1.35,10.41,1.15,13.88-.57,4,1.35,4,9.45-5.4,10.22-6,2.7-15,4.24-20.44.77-22-2.5-27.38S325.64,125,323,126.52Z" style="fill:#fff;stroke:#263238;stroke-miterlimit:10"></path><path d="M315.2,142.85c-.3,1.07-.91,1.84-1.37,1.72s-.6-1.11-.3-2.19.91-1.84,1.37-1.72S315.5,141.77,315.2,142.85Z" style="fill:#263238"></path><path d="M314.27,136.16s2.7-2.7,4.63,1.15" style="fill:none;stroke:#263238;stroke-miterlimit:10"></path><path d="M308.1,155.44s3.28,1.73,6-1.74c0,0,.38,3.08-1.55,4.43S308.1,155.44,308.1,155.44Z" style="fill:none;stroke:#263238;stroke-miterlimit:10"></path><path d="M311.23,276.54l2.21,11.58s-1.83,14,3.05,36.9c3,14.27,7.62,20.2,8.08,21.58s3.12,24.62,3.58,31.94,3.2,19.44,3.2,21.95-1.37,7.32-2.74,9.15-7.55,7.78-9.38,8.69-4.34,2.52-1.83,3.43a21.54,21.54,0,0,0,11,.46c3.89-.92,8-3.43,11-5.49s6.4-2.06,7.09-4.8-3.43-9.15-3.43-15.1,1.9-31.94,1.67-42.92-3.2-14-3.2-14l1.3-10.82,10.52,15.78c2.29,3.43,6.17,16.46,12.81,25.16s13.72,29.5,13.95,30.18-2.29,15.33-3.43,18.3-.69,7.09,6.63,7.09,10.29-3.66,9.37-8.92-2.28-9.15-2.28-13.26-3.89-24.25-4.8-29.51-2.75-21.72-5.26-28.36-7.09-12.35-9.84-15.78-4.8-16.23-5.49-21.72-2.06-22.19-3.89-31.11-2.51-9.6-2.51-9.6l-1.14-2.52s-15.56,4.81-24.7,5-22,1.14-22,1.14Z" style="fill:#263238;stroke:#263238;stroke-miterlimit:10"></path><path d="M339.36,416.73c3-2.06,6.4-2.06,7.09-4.8s-3.43-9.15-3.43-15.1c0-1.07.07-2.58.19-4.41a20.33,20.33,0,0,1-13.09,0,81.37,81.37,0,0,1,1.23,8.06c0,2.52-1.37,7.32-2.74,9.15s-7.55,7.78-9.38,8.69-4.34,2.52-1.83,3.43a21.54,21.54,0,0,0,11,.46C332.27,421.3,336.38,418.79,339.36,416.73Z" style="fill:#fff;stroke:#263238;stroke-miterlimit:10"></path><path d="M377,391.84c1.81,4.65,3,8.15,3.1,8.42.23.69-2.29,15.33-3.43,18.3s-.69,7.09,6.63,7.09,10.29-3.66,9.37-8.92-2.28-9.15-2.28-13.26c0-2.15-1.06-8.67-2.21-15.15C385.21,390.78,381.05,391.68,377,391.84Z" style="fill:#fff;stroke:#263238;stroke-miterlimit:10"></path><path d="M342.79,329.14a105,105,0,0,1-7.32-16.24c-3.2-9.15-3.89-11.43-3.89-11.43l-8.69-8" style="fill:none;stroke:#757575;stroke-miterlimit:10"></path><path d="M346.45,275.85s-1.37,7.32,9.6,8.69" style="fill:none;stroke:#757575;stroke-miterlimit:10"></path><path d="M328.38,422.22c3.89-.92,8-3.43,11-5.49s6.4-2.06,7.09-4.8c.39-1.58-.8-4.36-1.88-7.57a35.76,35.76,0,0,1-7.27,3.22s-2.52-3.43-4.35-3.43a7.83,7.83,0,0,0-2.24.41,16.52,16.52,0,0,1-2.1,5.08c-1.37,1.83-7.55,7.78-9.38,8.69s-4.34,2.52-1.83,3.43A21.54,21.54,0,0,0,328.38,422.22Z" style="fill:#fff;stroke:#263238;stroke-miterlimit:10"></path><path d="M392.64,416.73c-.73-4.24-1.75-7.58-2.13-10.87l-1.07,2.64s-1.6-5-5.71-5c-2.57,0-4,2.31-4.68,4a92.74,92.74,0,0,1-2.41,11c-1.15,3-.69,7.09,6.63,7.09S393.56,422,392.64,416.73Z" style="fill:#fff;stroke:#263238;stroke-miterlimit:10"></path><path d="M334.17,176.21s-18.29,9.46-26.83,21.66-4.88,35.37-4.27,48.17.61,22-.61,25.92,4.58,4.88,9.45,6.41,12.2-3.66,16.17-2.75,12.5,1.22,15.85.31,8.54-4.58,9.45-4.58h5.49a126.66,126.66,0,0,0-4.57-40.55c-6.1-20.74-8.23-43.61-12.2-50S334.17,176.21,334.17,176.21Z" style="fill:#025566;stroke:#263238;stroke-miterlimit:10"></path><path d="M322,233.43l12.38-15.07L346,224.55l5.59-4.29c-.85-3.59-1.61-7.15-2.31-10.59l-5.17,4.11-12.65-6.19L322,219.16l-13.45-8.34L302,216a105.27,105.27,0,0,0-.11,12.18l6.64-4.72Z" style="fill:#263238;stroke:#263238;stroke-miterlimit:10"></path><path d="M303.43,263.22,311,256l14.26,10.76,12.12-13.46L353,262.76l5.6-8.6a126,126,0,0,0-2-14.22l-5.49,9.64-16.42-10L322.8,252.81l-12.65-8.62-6.85,7.47C303.46,256.11,303.51,260,303.43,263.22Z" style="fill:#263238;stroke:#263238;stroke-miterlimit:10"></path><path d="M309,195.65l6.78-3.13,6.46,5.38,10.23-8.61L345.9,193a67.79,67.79,0,0,0-2.79-10.19l-9.81-3-9.42,8.34-2.95-3.57A67.26,67.26,0,0,0,309,195.65Z" style="fill:#263238;stroke:#263238;stroke-miterlimit:10"></path><path d="M338.18,126.71a9.9,9.9,0,0,0-11-7.52c-9.26.77-5.59,6.55-3.28,14.65s5.78,16.2,5.78,21.79-1,13.3-1,17.35-1.74,12-1.74,12l8.1,1,1.16-5,1.16,4.63,8.09,1.16.77-5.4,1.93,4.82h2.51c2.7,0,6.75-.19,6.75-.19v-4.82l2.89,4.62,7.13-3.47V178l2.51,3.28,2.7-4.63s-9.84-15.81-11.57-21.59,1.16-13.5-1.35-18.51-13.3-6.75-13.3-6.75l-6.37-1.73Z" style="fill:#263238;stroke:#263238;stroke-miterlimit:10"></path><circle cx="334.32" cy="155.82" r="9.64" style="fill:#fff;stroke:#263238;stroke-miterlimit:10"></circle><polygon points="335.48 148.11 340.68 125.36 348.59 128.25 338.18 151.77 334.13 150.62 335.48 148.11" style="fill:#fff;stroke:#263238;stroke-miterlimit:10"></polygon><circle cx="334.32" cy="155.82" r="6.94" style="fill:#fff;stroke:#263238;stroke-miterlimit:10"></circle><path d="M359.93,283.19a101,101,0,0,1-1.32,11.52c-.82,3.46-1.65,4,.33,4s2.63-5.6,2.63-5.6l2.31,2.14s3.95,8.4,5.43,9.06,2.14,0,1.31-2.14-2.3-6.59-2.3-6.59l1.15.66s4.12,6.91,5.11,7.57,1.81,1.32,2-.33-3.95-7.57-3.95-7.57l5.6,6.42s1.15,1.32,1.64,0-3.29-6.75-3.29-6.75l-.66-1.15a34.86,34.86,0,0,0,3.13,2.14c.49.16,1.81.82,2.47.49s-.66-2-1.81-3.29-4.12-4.11-5.27-6.09-2.8-4.77-2.8-4.77Z" style="fill:#fff;stroke:#263238;stroke-miterlimit:10"></path><path d="M355.65,274s.82,9,1.81,9.88,15.3-.17,16-.17,0-11.69,0-11.69-10.53-.82-12.18-.49A33.18,33.18,0,0,0,355.65,274Z" style="fill:#025566;stroke:#263238;stroke-miterlimit:10"></path><path d="M332,195.73s11.89,44.52,13.72,56.11,2.14,21,6.1,22.87,15.55-1.53,15.55-1.53,4.88,2.44,8.54.61,4-6.4,2.13-14-18.29-49.4-22.87-56.72-12.5-22.87-14.63-24.09-10.37-2.44-12.2,3.35" style="fill:#025566;stroke:#263238;stroke-miterlimit:10"></path><path d="M360.14,264.17,377,270.56l2-6.26c-.19-1.37-.48-2.87-.88-4.53s-1.53-5.08-3.09-9.39l-4.51,8.74-12.6-5.59-8.08,10.38-2.22.61c.86,5.31,1.93,9.1,4.28,10.19a6.62,6.62,0,0,0,2.1.49Z" style="fill:#263238;stroke:#263238;stroke-miterlimit:10"></path><path d="M335.31,208.16c.92,3.54,2,7.57,3,11.74l5.37-11.63,12.93,6,1.46-5.56a56.33,56.33,0,0,0-2.88-5.62c-.6-1-1.26-2.07-2-3.27l-1.59,3.76L342,198.33,335.75,208Z" style="fill:#263238;stroke:#263238;stroke-miterlimit:10"></path><path d="M346.59,249.19,353,235.35l13.84,6.39,2-7.58c-1.44-3.63-2.92-7.31-4.37-10.82l-3,7-10.37-5.59-6.65,10.37-2.19.73c.74,3.06,1.41,5.95,2,8.49Z" style="fill:#263238;stroke:#263238;stroke-miterlimit:10"></path></g></svg>